<svg width="16" height="16" viewBox="0 0 22 22" fill="none" xmlns="http://www.w3.org/2000/svg">
<path d="M2.2 20.8C1.595 20.8 1.07708 20.5846 0.64625 20.1538C0.215417 19.7229 0 19.205 0 18.6V3.2C0 2.595 0.215417 2.07708 0.64625 1.64625C1.07708 1.21542 1.595 1 2.2 1H17.6C18.205 1 18.7229 1.21542 19.1538 1.64625C19.5846 2.07708 19.8 2.595 19.8 3.2V5.4H22V7.6H19.8V9.8H22V12H19.8V14.2H22V16.4H19.8V18.6C19.8 19.205 19.5846 19.7229 19.1538 20.1538C18.7229 20.5846 18.205 20.8 17.6 20.8H2.2ZM2.2 18.6H17.6V3.2H2.2V18.6ZM4.4 16.4H9.9V12H4.4V16.4ZM11 8.7H15.4V5.4H11V8.7ZM4.4 10.9H9.9V5.4H4.4V10.9ZM11 16.4H15.4V9.8H11V16.4Z" fill="white"/>
</svg>
