<svg width="16" height="16" viewBox="0 0 22 22" fill="none" xmlns="http://www.w3.org/2000/svg">
<path d="M0 13.5V8H1.375V9.83336H3.20836V8H4.58336V13.5H3.20836V11.2084H1.375V13.5H0ZM7.10414 13.5V9.375H5.5V8H10.0834V9.375H8.47914V13.5H7.10414ZM11 13.5V8.91664C11 8.65697 11.0879 8.43924 11.2635 8.26352C11.4392 8.08786 11.657 8 11.9166 8H16.0416C16.3014 8 16.5191 8.08786 16.6948 8.26352C16.8705 8.43924 16.9584 8.65697 16.9584 8.91664V13.5H15.5834V9.375H14.6666V12.5834H13.2916V9.375H12.375V13.5H11ZM18.3334 13.5V8H19.7084V12.125H22V13.5H18.3334Z" fill="white"/>
</svg>
