<svg width="16" height="16" viewBox="0 0 22 22" fill="none" xmlns="http://www.w3.org/2000/svg">
<path d="M0 8.28993V7H6.77715V8.28993H4.15175V15.4944H2.6254V8.28993H0ZM8.14796 15.4944H6.5055L9.49599 7H11.3956L14.3902 15.4944H12.7477L10.4789 8.74203H10.4126L8.14796 15.4944ZM8.20188 12.1638H12.6813V13.3998H8.20188V12.1638ZM15.509 15.4944V7H18.6943C19.347 7 19.8944 7.11339 20.3368 7.34017C20.782 7.56686 21.118 7.88484 21.3447 8.29411C21.5742 8.70057 21.6889 9.17476 21.6889 9.7167C21.6889 10.2615 21.5728 10.7343 21.3406 11.1352C21.1111 11.5334 20.7723 11.8417 20.3243 12.0601C19.8764 12.2758 19.3262 12.3837 18.6736 12.3837H16.4048V11.1062H18.4662C18.8478 11.1062 19.1603 11.0536 19.4036 10.9485C19.6469 10.8407 19.8267 10.6845 19.9428 10.4799C20.0617 10.2725 20.1211 10.0181 20.1211 9.7167C20.1211 9.41536 20.0617 9.15822 19.9428 8.94526C19.8239 8.72957 19.6427 8.56644 19.3994 8.45588C19.1561 8.34249 18.8423 8.28584 18.4579 8.28584H17.0477V15.4944H15.509ZM19.8972 11.6454L22 15.4944H20.2829L18.2173 11.6454H19.8972Z" fill="white"/>
</svg>
