<svg width="16" height="16" viewBox="0 0 22 22" fill="none" xmlns="http://www.w3.org/2000/svg">
<path d="M2.31577 22C1.67899 22 1.13381 21.7733 0.680235 21.3198C0.226745 20.8662 0 20.3211 0 19.6842V15.0526C0 14.4157 0.226745 13.8707 0.680235 13.4171C1.13381 12.9636 1.67899 12.7368 2.31577 12.7368H13.8948V8.10522H16.2105V12.7368H18.5263C19.1632 12.7368 19.7083 12.9636 20.1618 13.4171C20.6153 13.8707 20.8421 14.4157 20.8421 15.0526V19.6842C20.8421 20.3211 20.6153 20.8662 20.1618 21.3198C19.7083 21.7733 19.1632 22 18.5263 22H2.31577ZM18.5263 19.6842V15.0526H2.31577V19.6842H18.5263ZM5.78946 17.3684C5.78946 17.0403 5.67852 16.7653 5.45654 16.5435C5.23465 16.3215 4.95968 16.2105 4.63162 16.2105C4.30347 16.2105 4.0285 16.3215 3.80661 16.5435C3.58464 16.7653 3.47369 17.0403 3.47369 17.3684C3.47369 17.6965 3.58464 17.9715 3.80661 18.1934C4.0285 18.4154 4.30347 18.5263 4.63162 18.5263C4.95968 18.5263 5.23465 18.4154 5.45654 18.1934C5.67852 17.9715 5.78946 17.6965 5.78946 17.3684ZM9.84207 17.3684C9.84207 17.0403 9.73113 16.7653 9.50924 16.5435C9.28727 16.3215 9.01229 16.2105 8.68423 16.2105C8.35617 16.2105 8.08111 16.3215 7.85923 16.5435C7.63725 16.7653 7.52631 17.0403 7.52631 17.3684C7.52631 17.6965 7.63725 17.9715 7.85923 18.1934C8.08111 18.4154 8.35617 18.5263 8.68423 18.5263C9.01229 18.5263 9.28727 18.4154 9.50924 18.1934C9.73113 17.9715 9.84207 17.6965 9.84207 17.3684ZM12.7368 18.5263C13.0649 18.5263 13.3399 18.4154 13.5619 18.1934C13.7837 17.9715 13.8948 17.6965 13.8948 17.3684C13.8948 17.0403 13.7837 16.7653 13.5619 16.5435C13.3399 16.3215 13.0649 16.2105 12.7368 16.2105C12.4088 16.2105 12.1338 16.3215 11.9118 16.5435C11.69 16.7653 11.5789 17.0403 11.5789 17.3684C11.5789 17.6965 11.69 17.9715 11.9118 18.1934C12.1338 18.4154 12.4088 18.5263 12.7368 18.5263ZM13.0263 7.23685L11.3474 5.55786C11.8491 5.09474 12.4088 4.72808 13.0263 4.45787C13.6438 4.18776 14.3193 4.05261 15.0526 4.05261C15.7859 4.05261 16.4614 4.18776 17.0789 4.45787C17.6965 4.72808 18.2561 5.09474 18.7579 5.55786L17.0789 7.23685C16.8088 6.96664 16.5049 6.75438 16.1671 6.59998C15.8294 6.44558 15.4579 6.36838 15.0526 6.36838C14.6473 6.36838 14.2759 6.44558 13.9381 6.59998C13.6005 6.75438 13.2965 6.96664 13.0263 7.23685ZM10.1316 4.34207L8.51049 2.72103C9.35961 1.8719 10.3439 1.20616 11.4631 0.723694C12.5824 0.241232 13.779 0 15.0526 0C16.3263 0 17.5228 0.241232 18.6421 0.723694C19.7614 1.20616 20.7456 1.8719 21.5947 2.72103L19.9737 4.34207C19.3368 3.7053 18.5986 3.20835 17.7592 2.85131C16.9197 2.49428 16.0175 2.31577 15.0526 2.31577C14.0877 2.31577 13.1856 2.49428 12.3461 2.85131C11.5066 3.20835 10.7684 3.7053 10.1316 4.34207Z" fill="white"/>
</svg>
