<svg width="16" height="16" viewBox="0 0 22 22" fill="none" xmlns="http://www.w3.org/2000/svg">
<path d="M11 22C8.18886 22 5.73934 21.068 3.65136 19.2042C1.56347 17.3403 0.366667 15.013 0.0611417 12.2222H2.56667C2.85184 14.3407 3.79399 16.0926 5.39303 17.4778C6.99215 18.863 8.86114 19.5555 11 19.5555C13.3833 19.5555 15.4051 18.7255 17.0653 17.0653C18.7255 15.4051 19.5555 13.3833 19.5555 11C19.5555 8.61667 18.7255 6.59487 17.0653 4.93469C15.4051 3.27452 13.3833 2.44448 11 2.44448C9.59448 2.44448 8.28053 2.77035 7.05833 3.42219C5.83614 4.07403 4.80737 4.97035 3.97219 6.11114H7.33333V8.55553H0V1.22219H2.44448V4.09447C3.48333 2.7907 4.75136 1.78237 6.24864 1.06948C7.74583 0.356492 9.32965 0 11 0C12.5278 0 13.9588 0.290309 15.293 0.870834C16.6273 1.45136 17.7885 2.23566 18.7764 3.22364C19.7643 4.21153 20.5486 5.37268 21.1292 6.70698C21.7097 8.04118 22 9.47219 22 11C22 12.5278 21.7097 13.9588 21.1292 15.293C20.5486 16.6273 19.7643 17.7885 18.7764 18.7764C17.7885 19.7643 16.6273 20.5486 15.293 21.1292C13.9588 21.7097 12.5278 22 11 22ZM14.4222 16.1333L9.77781 11.4889V4.88886H12.2222V10.5111L16.1333 14.4222L14.4222 16.1333Z" fill="white"/>
</svg>
