<svg width="16" height="16" viewBox="0 0 22 22" fill="none" xmlns="http://www.w3.org/2000/svg">
<path d="M5.5 19C3.98338 19 2.68748 18.475 1.61251 17.425C0.537533 16.375 0 15.0917 0 13.575C0 12.275 0.391691 11.1166 1.17498 10.1C1.95837 9.08337 2.98329 8.43336 4.25003 8.15002C4.66666 6.61671 5.5 5.37499 6.74997 4.42496C8.00002 3.47502 9.41664 3 11 3C12.95 3 14.6042 3.67916 15.9625 5.03748C17.3209 6.39579 18 8.05001 18 10C19.15 10.1333 20.1042 10.6291 20.8625 11.4875C21.6209 12.3459 22 13.35 22 14.5C22 15.75 21.5625 16.8125 20.6875 17.6875C19.8125 18.5625 18.75 19 17.5 19H5.5ZM5.5 17H17.5C18.2 17 18.7917 16.7583 19.275 16.275C19.7583 15.7916 20 15.2 20 14.5C20 13.8 19.7583 13.2084 19.275 12.725C18.7917 12.2417 18.2 12 17.5 12H16V10C16 8.61669 15.5125 7.43749 14.5375 6.46252C13.5625 5.48747 12.3833 4.99998 11 4.99998C9.61666 4.99998 8.43746 5.48747 7.46249 6.46252C6.48752 7.43749 6.00004 8.61669 6.00004 10H5.5C4.53338 10 3.70837 10.3417 3.025 11.025C2.34162 11.7083 1.99998 12.5333 1.99998 13.5C1.99998 14.4667 2.34162 15.2917 3.025 15.975C3.70837 16.6583 4.53338 17 5.5 17Z" fill="white"/>
</svg>
