<svg width="16" height="16" viewBox="0 0 22 22" fill="none" xmlns="http://www.w3.org/2000/svg">
<path d="M14.3579 9.84207L12.7368 8.22103L15.7473 5.21052L12.7368 2.2L14.3579 0.578966L17.3684 3.58948L20.379 0.578966L22 2.2L18.9895 5.21052L22 8.22103L20.379 9.84207L17.3684 6.83155L14.3579 9.84207ZM0 10.421L5.78948 0L11.579 10.421H0ZM5.78948 22C4.51577 22 3.4254 21.5465 2.51845 20.6395C1.61141 19.7324 1.15793 18.6421 1.15793 17.3684C1.15793 16.0754 1.61141 14.9803 2.51845 14.0829C3.4254 13.1855 4.51577 12.7368 5.78948 12.7368C7.06319 12.7368 8.15347 13.1904 9.06052 14.0973C9.96756 15.0044 10.421 16.0947 10.421 17.3684C10.421 18.6421 9.96756 19.7324 9.06052 20.6395C8.15347 21.5465 7.06319 22 5.78948 22ZM5.78948 19.6842C6.42629 19.6842 6.97153 19.4574 7.425 19.004C7.87848 18.5504 8.10526 18.0053 8.10526 17.3684C8.10526 16.7315 7.87848 16.1864 7.425 15.7329C6.97153 15.2794 6.42629 15.0527 5.78948 15.0527C5.15267 15.0527 4.60744 15.2794 4.15397 15.7329C3.7004 16.1864 3.47371 16.7315 3.47371 17.3684C3.47371 18.0053 3.7004 18.5504 4.15397 19.004C4.60744 19.4574 5.15267 19.6842 5.78948 19.6842ZM3.93681 8.10526H7.64207L5.78948 4.77629L3.93681 8.10526ZM12.7368 22V12.7368H22V22H12.7368ZM15.0527 19.6842H19.6842V15.0527H15.0527V19.6842Z" fill="white"/>
</svg>
