<svg width="16" height="16" viewBox="0 0 22 22" fill="none" xmlns="http://www.w3.org/2000/svg">
<path d="M3.68757 19.0548C2.68418 19.0548 1.8271 18.6952 1.11632 17.976C0.405533 17.2569 0.0334583 16.3873 0 15.3671C0 15.2167 0.00834081 15.0662 0.0251158 14.9157C0.0417991 14.7651 0.0669175 14.6146 0.100376 14.4641L2.20752 6.03536C2.44163 5.13226 2.9183 4.40057 3.63742 3.8404C4.35655 3.28013 5.17596 3 6.09574 3H15.8791C16.7989 3 17.6184 3.28013 18.3376 3.8404C19.0567 4.40057 19.5333 5.13226 19.7674 6.03536L21.8746 14.4641C21.9081 14.6146 21.9373 14.7693 21.9624 14.9281C21.9874 15.0871 22 15.2417 22 15.3922C22 16.4124 21.6363 17.2778 20.9088 17.9886C20.1813 18.6994 19.3075 19.0548 18.2873 19.0548C17.585 19.0548 16.9328 18.8708 16.3307 18.5029C15.7286 18.1349 15.2771 17.6332 14.976 16.9977L14.2737 15.5427C14.19 15.3755 14.0646 15.2501 13.8974 15.1665C13.7301 15.0829 13.5546 15.0411 13.3706 15.0411H8.60429C8.42041 15.0411 8.24477 15.0829 8.07757 15.1665C7.91028 15.2501 7.78488 15.3755 7.70128 15.5427L6.99884 16.9977C6.69781 17.6332 6.24626 18.1349 5.64428 18.5029C5.04222 18.8708 4.39001 19.0548 3.68757 19.0548ZM3.76283 17.0479C4.08054 17.0479 4.36902 16.9643 4.62825 16.797C4.88748 16.6298 5.08402 16.4041 5.21776 16.1197L5.9202 14.6899C6.171 14.1714 6.53895 13.7659 7.02396 13.4732C7.50897 13.1805 8.03568 13.0342 8.60429 13.0342H13.3706C13.9392 13.0342 14.466 13.1847 14.9509 13.4857C15.4359 13.7868 15.8122 14.1881 16.0798 14.6899L16.7822 16.1197C16.916 16.4041 17.1125 16.6298 17.3718 16.797C17.631 16.9643 17.9195 17.0479 18.2372 17.0479C18.7054 17.0479 19.1068 16.8932 19.4413 16.5838C19.7757 16.2744 19.9513 15.8856 19.9681 15.4173C19.9681 15.434 19.9513 15.2752 19.9179 14.9407L17.8107 6.53705C17.6937 6.0855 17.4596 5.71764 17.1083 5.43329C16.7571 5.14903 16.3474 5.00686 15.8791 5.00686H6.09574C5.62751 5.00686 5.21363 5.14903 4.85402 5.43329C4.49451 5.71764 4.26452 6.0855 4.16423 6.53705L2.057 14.9407C2.02354 15.0411 2.00686 15.1916 2.00686 15.3922C2.00686 15.8605 2.17827 16.2535 2.52111 16.5712C2.86394 16.8891 3.27782 17.0479 3.76283 17.0479ZM12.4926 10.024C12.7769 10.024 13.0152 9.9278 13.2075 9.73548C13.3998 9.54317 13.496 9.30483 13.496 9.02048C13.496 8.73622 13.3998 8.49789 13.2075 8.30558C13.0152 8.11326 12.7769 8.0171 12.4926 8.0171C12.2083 8.0171 11.97 8.11326 11.7776 8.30558C11.5853 8.49789 11.4891 8.73622 11.4891 9.02048C11.4891 9.30483 11.5853 9.54317 11.7776 9.73548C11.97 9.9278 12.2083 10.024 12.4926 10.024ZM14.4995 8.0171C14.7837 8.0171 15.0221 7.92094 15.2144 7.72863C15.4067 7.53631 15.5029 7.29797 15.5029 7.01372C15.5029 6.72937 15.4067 6.49103 15.2144 6.29872C15.0221 6.1064 14.7837 6.01024 14.4995 6.01024C14.2151 6.01024 13.9768 6.1064 13.7845 6.29872C13.5922 6.49103 13.496 6.72937 13.496 7.01372C13.496 7.29797 13.5922 7.53631 13.7845 7.72863C13.9768 7.92094 14.2151 8.0171 14.4995 8.0171ZM14.4995 12.0308C14.7837 12.0308 15.0221 11.9347 15.2144 11.7423C15.4067 11.55 15.5029 11.3117 15.5029 11.0273C15.5029 10.7431 15.4067 10.5047 15.2144 10.3124C15.0221 10.1201 14.7837 10.024 14.4995 10.024C14.2151 10.024 13.9768 10.1201 13.7845 10.3124C13.5922 10.5047 13.496 10.7431 13.496 11.0273C13.496 11.3117 13.5922 11.55 13.7845 11.7423C13.9768 11.9347 14.2151 12.0308 14.4995 12.0308ZM16.5062 10.024C16.7906 10.024 17.0289 9.9278 17.2212 9.73548C17.4136 9.54317 17.5097 9.30483 17.5097 9.02048C17.5097 8.73622 17.4136 8.49789 17.2212 8.30558C17.0289 8.11326 16.7906 8.0171 16.5062 8.0171C16.222 8.0171 15.9836 8.11326 15.7913 8.30558C15.599 8.49789 15.5029 8.73622 15.5029 9.02048C15.5029 9.30483 15.599 9.54317 15.7913 9.73548C15.9836 9.9278 16.222 10.024 16.5062 10.024ZM7.47551 11.529C7.69285 11.529 7.8727 11.458 8.01478 11.3158C8.15696 11.1737 8.22809 10.9939 8.22809 10.7765V9.77307H9.23147C9.44891 9.77307 9.62867 9.70203 9.77084 9.55985C9.91292 9.41768 9.98406 9.23792 9.98406 9.02048C9.98406 8.80314 9.91292 8.62329 9.77084 8.48121C9.62867 8.33903 9.44891 8.26799 9.23147 8.26799H8.22809V7.26452C8.22809 7.04718 8.15696 6.86732 8.01478 6.72524C7.8727 6.58307 7.69285 6.51193 7.47551 6.51193C7.25808 6.51193 7.07832 6.58307 6.93614 6.72524C6.79397 6.86732 6.72293 7.04718 6.72293 7.26452V8.26799H5.71954C5.50211 8.26799 5.32235 8.33903 5.18018 8.48121C5.038 8.62329 4.96696 8.80314 4.96696 9.02048C4.96696 9.23792 5.038 9.41768 5.18018 9.55985C5.32235 9.70203 5.50211 9.77307 5.71954 9.77307H6.72293V10.7765C6.72293 10.9939 6.79397 11.1737 6.93614 11.3158C7.07832 11.458 7.25808 11.529 7.47551 11.529Z" fill="white"/>
</svg>
