<svg width="16" height="16" viewBox="0 0 22 22" fill="none" xmlns="http://www.w3.org/2000/svg">
<path d="M2.44448 22C1.77219 22 1.1968 21.7607 0.718025 21.282C0.239342 20.8032 0 20.2278 0 19.5555V2.44448C0 1.77219 0.239342 1.1968 0.718025 0.718025C1.1968 0.239342 1.77219 0 2.44448 0H19.5555C20.2278 0 20.8032 0.239342 21.282 0.718025C21.7607 1.1968 22 1.77219 22 2.44448V19.5555C22 20.2278 21.7607 20.8032 21.282 21.282C20.8032 21.7607 20.2278 22 19.5555 22H2.44448ZM2.44448 19.5555H19.5555V2.44448H2.44448V19.5555ZM3.66667 17.1111H18.3333L13.75 11L10.0833 15.8889L7.33333 12.2222L3.66667 17.1111ZM6.72219 8.55553C7.23149 8.55553 7.66434 8.37733 8.02083 8.02083C8.37733 7.66434 8.55552 7.23149 8.55552 6.72219C8.55552 6.21298 8.37733 5.78013 8.02083 5.42364C7.66434 5.06715 7.23149 4.88886 6.72219 4.88886C6.21298 4.88886 5.78013 5.06715 5.42364 5.42364C5.06715 5.78013 4.88886 6.21298 4.88886 6.72219C4.88886 7.23149 5.06715 7.66434 5.42364 8.02083C5.78013 8.37733 6.21298 8.55553 6.72219 8.55553Z" fill="white"/>
</svg>
