<svg width="16" height="16" viewBox="0 0 22 22" fill="none" xmlns="http://www.w3.org/2000/svg">
<path d="M17.6667 7.33333H8.23811V5.23811C8.23811 4.36508 8.54363 3.62303 9.15478 3.01189C9.76592 2.40075 10.508 2.09522 11.381 2.09522C12.2539 2.09522 12.9961 2.40075 13.6071 3.01189C14.2183 3.62303 14.5238 4.36508 14.5238 5.23811H16.619C16.619 3.78886 16.1083 2.55356 15.0869 1.53212C14.0655 0.510675 12.8301 0 11.381 0C9.93174 0 8.69644 0.510675 7.675 1.53212C6.65356 2.55356 6.14288 3.78886 6.14288 5.23811V7.33333H5.09523C4.51901 7.33333 4.02575 7.53848 3.61545 7.94878C3.20515 8.35908 3 8.85234 3 9.42856V19.9048C3 20.481 3.20515 20.9743 3.61545 21.3846C4.02575 21.7949 4.51901 22 5.09523 22H17.6667C18.2429 22 18.7361 21.7949 19.1464 21.3846C19.5567 20.9743 19.7619 20.481 19.7619 19.9048V9.42856C19.7619 8.85234 19.5567 8.35908 19.1464 7.94878C18.7361 7.53848 18.2429 7.33333 17.6667 7.33333ZM17.6667 19.9048H5.09523V9.42856H17.6667V19.9048ZM11.381 16.7619C10.8048 16.7619 10.3115 16.5567 9.90122 16.1464C9.49092 15.7361 9.28568 15.2429 9.28568 14.6667C9.28568 14.0905 9.49092 13.5972 9.90122 13.1869C10.3115 12.7766 10.8048 12.5714 11.381 12.5714C11.9571 12.5714 12.4504 12.7766 12.8607 13.1869C13.2711 13.5972 13.4762 14.0905 13.4762 14.6667C13.4762 15.2429 13.2711 15.7361 12.8607 16.1464C12.4504 16.5567 11.9571 16.7619 11.381 16.7619Z" fill="white"/>
</svg>
