<svg width="16" height="16" viewBox="0 0 22 22" fill="none" xmlns="http://www.w3.org/2000/svg">
<path d="M10.4762 10.4286L2.09522 5.19045V15.6667H11.5238V17.7619H2.09522C1.51901 17.7619 1.02575 17.5567 0.61545 17.1464C0.20515 16.7361 0 16.2429 0 15.6667V3.09522C0 2.51901 0.20515 2.02575 0.61545 1.61545C1.02575 1.20515 1.51901 1 2.09522 1H18.8571C19.4333 1 19.9266 1.20515 20.3369 1.61545C20.7472 2.02575 20.9523 2.51901 20.9523 3.09522V10.4286H18.8571V5.19045L10.4762 10.4286ZM10.4762 8.33333L18.8571 3.09522H2.09522L10.4762 8.33333ZM17.8096 20.9048L16.3429 19.4381L17.9929 17.7619H13.619V15.6667H17.9929L16.3167 13.9904L17.8096 12.5238L22 16.7143L17.8096 20.9048ZM2.09522 5.19045V16.7143V10.4286V10.5071V3.09522V5.19045Z" fill="white"/>
</svg>
