<svg width="16" height="16" viewBox="0 0 22 22" fill="none" xmlns="http://www.w3.org/2000/svg">
<path d="M3.19 15.62C2.145 14.52 1.35208 13.3008 0.81125 11.9625C0.270417 10.6242 0 9.24 0 7.81C0 6.38 0.270417 4.99583 0.81125 3.6575C1.35208 2.31917 2.145 1.1 3.19 0L4.51 1.32C3.63 2.2 2.97 3.21292 2.53 4.35875C2.09 5.50458 1.87 6.655 1.87 7.81C1.87 8.965 2.09 10.1154 2.53 11.2613C2.97 12.4071 3.63 13.42 4.51 14.3L3.19 15.62ZM5.83 12.98C5.115 12.265 4.56958 11.4583 4.19375 10.56C3.81792 9.66167 3.63 8.745 3.63 7.81C3.63 6.875 3.81792 5.95833 4.19375 5.06C4.56958 4.16167 5.115 3.355 5.83 2.64L7.15 3.96C6.6 4.455 6.1875 5.04167 5.9125 5.72C5.6375 6.39833 5.5 7.095 5.5 7.81C5.5 8.47 5.6375 9.13917 5.9125 9.8175C6.1875 10.4958 6.6 11.11 7.15 11.66L5.83 12.98ZM5.5 21.01L9.2125 9.8725C8.91917 9.61583 8.68542 9.31333 8.51125 8.965C8.33708 8.61667 8.25 8.23167 8.25 7.81C8.25 7.04 8.51583 6.38917 9.0475 5.8575C9.57917 5.32583 10.23 5.06 11 5.06C11.77 5.06 12.4208 5.32583 12.9525 5.8575C13.4842 6.38917 13.75 7.04 13.75 7.81C13.75 8.23167 13.6629 8.61667 13.4888 8.965C13.3146 9.31333 13.0808 9.61583 12.7875 9.8725L16.5 21.01H14.3L13.585 18.81H8.4425L7.7 21.01H5.5ZM9.1575 16.61H12.8425L11 11.11L9.1575 16.61ZM16.17 12.98L14.85 11.66C15.4 11.165 15.8125 10.5783 16.0875 9.9C16.3625 9.22167 16.5 8.525 16.5 7.81C16.5 7.15 16.3625 6.48083 16.0875 5.8025C15.8125 5.12417 15.4 4.51 14.85 3.96L16.17 2.64C16.885 3.355 17.4167 4.16167 17.765 5.06C18.1133 5.95833 18.315 6.875 18.37 7.81C18.37 8.745 18.1821 9.66167 17.8062 10.56C17.4304 11.4583 16.885 12.265 16.17 12.98ZM18.81 15.62L17.49 14.3C18.37 13.42 19.03 12.4071 19.47 11.2613C19.91 10.1154 20.13 8.965 20.13 7.81C20.13 6.655 19.91 5.50458 19.47 4.35875C19.03 3.21292 18.37 2.2 17.49 1.32L18.81 0C19.855 1.1 20.6479 2.31917 21.1888 3.6575C21.7296 4.99583 22 6.38 22 7.81C22 9.24 21.7433 10.6242 21.23 11.9625C20.7167 13.3008 19.91 14.52 18.81 15.62Z" fill="white"/>
</svg>
