<svg width="16" height="16" viewBox="0 0 22 22" fill="none" xmlns="http://www.w3.org/2000/svg">
<path d="M2.75 22C1.99375 22 1.3464 21.7308 0.807858 21.1922C0.269317 20.6536 0 20.0063 0 19.25C0 18.4938 0.269317 17.8464 0.807858 17.3079C1.3464 16.7693 1.99375 16.5 2.75 16.5C3.50625 16.5 4.1536 16.7693 4.69223 17.3079C5.23077 17.8464 5.5 18.4938 5.5 19.25C5.5 20.0063 5.23077 20.6536 4.69223 21.1922C4.1536 21.7308 3.50625 22 2.75 22ZM11 22C10.2438 22 9.5964 21.7308 9.05786 21.1922C8.51923 20.6536 8.25 20.0063 8.25 19.25C8.25 18.4938 8.51923 17.8464 9.05786 17.3079C9.5964 16.7693 10.2438 16.5 11 16.5C11.7563 16.5 12.4037 16.7693 12.9422 17.3079C13.4808 17.8464 13.75 18.4938 13.75 19.25C13.75 20.0063 13.4808 20.6536 12.9422 21.1922C12.4037 21.7308 11.7563 22 11 22ZM19.25 22C18.4938 22 17.8464 21.7308 17.3079 21.1922C16.7693 20.6536 16.5 20.0063 16.5 19.25C16.5 18.4938 16.7693 17.8464 17.3079 17.3079C17.8464 16.7693 18.4938 16.5 19.25 16.5C20.0063 16.5 20.6536 16.7693 21.1922 17.3079C21.7308 17.8464 22 18.4938 22 19.25C22 20.0063 21.7308 20.6536 21.1922 21.1922C20.6536 21.7308 20.0063 22 19.25 22ZM2.75 13.75C1.99375 13.75 1.3464 13.4808 0.807858 12.9422C0.269317 12.4037 0 11.7563 0 11C0 10.2438 0.269317 9.5964 0.807858 9.05786C1.3464 8.51923 1.99375 8.25 2.75 8.25C3.50625 8.25 4.1536 8.51923 4.69223 9.05786C5.23077 9.5964 5.5 10.2438 5.5 11C5.5 11.7563 5.23077 12.4037 4.69223 12.9422C4.1536 13.4808 3.50625 13.75 2.75 13.75ZM11 13.75C10.2438 13.75 9.5964 13.4808 9.05786 12.9422C8.51923 12.4037 8.25 11.7563 8.25 11C8.25 10.2438 8.51923 9.5964 9.05786 9.05786C9.5964 8.51923 10.2438 8.25 11 8.25C11.7563 8.25 12.4037 8.51923 12.9422 9.05786C13.4808 9.5964 13.75 10.2438 13.75 11C13.75 11.7563 13.4808 12.4037 12.9422 12.9422C12.4037 13.4808 11.7563 13.75 11 13.75ZM19.25 13.75C18.4938 13.75 17.8464 13.4808 17.3079 12.9422C16.7693 12.4037 16.5 11.7563 16.5 11C16.5 10.2438 16.7693 9.5964 17.3079 9.05786C17.8464 8.51923 18.4938 8.25 19.25 8.25C20.0063 8.25 20.6536 8.51923 21.1922 9.05786C21.7308 9.5964 22 10.2438 22 11C22 11.7563 21.7308 12.4037 21.1922 12.9422C20.6536 13.4808 20.0063 13.75 19.25 13.75ZM2.75 5.5C1.99375 5.5 1.3464 5.23077 0.807858 4.69223C0.269317 4.1536 0 3.50625 0 2.75C0 1.99375 0.269317 1.3464 0.807858 0.807858C1.3464 0.269317 1.99375 0 2.75 0C3.50625 0 4.1536 0.269317 4.69223 0.807858C5.23077 1.3464 5.5 1.99375 5.5 2.75C5.5 3.50625 5.23077 4.1536 4.69223 4.69223C4.1536 5.23077 3.50625 5.5 2.75 5.5ZM11 5.5C10.2438 5.5 9.5964 5.23077 9.05786 4.69223C8.51923 4.1536 8.25 3.50625 8.25 2.75C8.25 1.99375 8.51923 1.3464 9.05786 0.807858C9.5964 0.269317 10.2438 0 11 0C11.7563 0 12.4037 0.269317 12.9422 0.807858C13.4808 1.3464 13.75 1.99375 13.75 2.75C13.75 3.50625 13.4808 4.1536 12.9422 4.69223C12.4037 5.23077 11.7563 5.5 11 5.5ZM19.25 5.5C18.4938 5.5 17.8464 5.23077 17.3079 4.69223C16.7693 4.1536 16.5 3.50625 16.5 2.75C16.5 1.99375 16.7693 1.3464 17.3079 0.807858C17.8464 0.269317 18.4938 0 19.25 0C20.0063 0 20.6536 0.269317 21.1922 0.807858C21.7308 1.3464 22 1.99375 22 2.75C22 3.50625 21.7308 4.1536 21.1922 4.69223C20.6536 5.23077 20.0063 5.5 19.25 5.5Z" fill="white"/>
</svg>
