<svg width="16" height="16" viewBox="0 0 22 22" fill="none" xmlns="http://www.w3.org/2000/svg">
<path d="M6.6 20.8V18.6H8.8V16.4H2.2C1.595 16.4 1.07708 16.1846 0.64625 15.7538C0.215417 15.3229 0 14.805 0 14.2V3.2C0 2.595 0.215417 2.07708 0.64625 1.64625C1.07708 1.21542 1.595 1 2.2 1H19.8C20.405 1 20.9229 1.21542 21.3537 1.64625C21.7846 2.07708 22 2.595 22 3.2V14.2C22 14.805 21.7846 15.3229 21.3537 15.7538C20.9229 16.1846 20.405 16.4 19.8 16.4H13.2V18.6H15.4V20.8H6.6ZM2.2 14.2H19.8V3.2H2.2V14.2Z" fill="white"/>
</svg>
