<svg width="22" height="22" viewBox="0 0 22 22" fill="none" xmlns="http://www.w3.org/2000/svg">
<path d="M11 21.185L9.405 19.755C7.55333 18.0867 6.0225 16.6475 4.8125 15.4375C3.6025 14.2275 2.64 13.1412 1.925 12.1787C1.21 11.2162 0.710417 10.3317 0.42625 9.525C0.142083 8.71833 0 7.89333 0 7.05C0 5.32667 0.577499 3.8875 1.7325 2.7325C2.8875 1.5775 4.32667 1 6.05 1C7.00333 1 7.91083 1.20167 8.7725 1.605C9.63417 2.00833 10.3767 2.57667 11 3.31C11.6233 2.57667 12.3658 2.00833 13.2275 1.605C14.0892 1.20167 14.9967 1 15.95 1C17.6733 1 19.1125 1.5775 20.2675 2.7325C21.4225 3.8875 22 5.32667 22 7.05C22 7.89333 21.8579 8.71833 21.5738 9.525C21.2896 10.3317 20.79 11.2162 20.075 12.1787C19.36 13.1412 18.3975 14.2275 17.1875 15.4375C15.9775 16.6475 14.4467 18.0867 12.595 19.755L11 21.185ZM11 18.215C12.76 16.6383 14.2083 15.2862 15.345 14.1587C16.4817 13.0312 17.38 12.0504 18.04 11.2163C18.7 10.3821 19.1583 9.63958 19.415 8.98875C19.6717 8.33792 19.8 7.69167 19.8 7.05C19.8 5.95 19.4333 5.03333 18.7 4.3C17.9667 3.56667 17.05 3.2 15.95 3.2C15.0883 3.2 14.2908 3.44292 13.5575 3.92875C12.8242 4.41458 12.32 5.03333 12.045 5.785H9.955C9.68 5.03333 9.17583 4.41458 8.4425 3.92875C7.70917 3.44292 6.91167 3.2 6.05 3.2C4.95 3.2 4.03333 3.56667 3.3 4.3C2.56667 5.03333 2.2 5.95 2.2 7.05C2.2 7.69167 2.32833 8.33792 2.585 8.98875C2.84167 9.63958 3.3 10.3821 3.96 11.2163C4.62 12.0504 5.51833 13.0312 6.655 14.1587C7.79167 15.2862 9.24 16.6383 11 18.215Z" fill="white"/>
</svg>
