<svg width="22" height="22" viewBox="0 0 22 22" fill="none" xmlns="http://www.w3.org/2000/svg">
<path d="M4.44799 20.54C4.08803 20.54 3.75378 20.4457 3.44523 20.2572C3.13668 20.0686 2.88814 19.8201 2.69962 19.5115L0.282848 15.295C0.094321 14.9866 0 14.6437 0 14.2666C0 13.8895 0.094321 13.5467 0.282848 13.2382L6.81335 2.02835C7.00188 1.6856 7.25467 1.42846 7.57182 1.25703C7.88887 1.08571 8.22736 1 8.58732 1H13.421C13.7809 1 14.1194 1.08571 14.4365 1.25703C14.7536 1.42846 15.0064 1.6856 15.1949 2.02835L19.7971 9.92157C19.54 9.83586 19.283 9.78009 19.0258 9.75439C18.7687 9.72869 18.4944 9.71583 18.2031 9.71583H17.766C17.6289 9.71583 17.4832 9.73293 17.329 9.76724L13.421 3.05681H8.58732L2.05693 14.2666L4.47369 18.4831H12.5982C12.7868 18.8773 13.0053 19.2459 13.2538 19.5887C13.5023 19.9315 13.798 20.2486 14.1409 20.54H4.44799ZM6.11915 15.9121L5.37353 14.6009L10.0786 6.39923H11.9297L14.5265 10.9242C14.218 11.1642 13.948 11.4084 13.7166 11.657C13.4852 11.9055 13.2666 12.184 13.061 12.4926L11.0042 8.91881L8.17596 13.8553H12.3925C12.2554 14.198 12.1612 14.5365 12.1097 14.8708C12.0583 15.205 12.0326 15.5521 12.0326 15.9121H6.11915Z" fill="white"/>
<path d="M16.6587 14.603L15.8959 15.9044L6.44055 15.9305L5.5149 14.3273L8.1354 9.81596C8.49747 9.96314 8.84402 10.0749 9.17492 10.151C9.50582 10.2271 9.85628 10.2771 10.2264 10.301L8.15976 13.8691L13.849 13.8501L11.7407 10.1986C12.1061 10.1459 12.4465 10.0582 12.7616 9.93565C13.0768 9.81306 13.3902 9.66186 13.7019 9.48182L16.6587 14.603Z" fill="white"/>
<path d="M21.7429 13.2942C21.9229 13.6058 22.0084 13.9424 21.9993 14.304C21.9903 14.6654 21.8993 15.0049 21.7265 15.3225L19.2832 19.5237C19.1103 19.8413 18.8605 20.0943 18.534 20.2829C18.2075 20.4714 17.8634 20.5611 17.502 20.5522L4.52868 20.5014C4.13754 20.5096 3.78854 20.4192 3.48155 20.2303C3.17457 20.0414 2.93106 19.791 2.75102 19.4794L0.334253 15.2933C0.154331 14.9816 0.0592289 14.6456 0.0491712 14.2853C0.0390016 13.925 0.135333 13.5775 0.337941 13.2428L4.87243 5.31065C4.92674 5.57606 5.00709 5.82661 5.11337 6.06219C5.21964 6.29765 5.3457 6.5416 5.49132 6.79394L5.7099 7.17245C5.77841 7.29124 5.86614 7.40881 5.97297 7.52525L2.1156 14.265L4.53236 18.4509L17.5055 18.5016L19.9488 14.3003L15.8865 7.26431C16.1337 6.90391 16.3435 6.53032 16.5162 6.14377C16.6887 5.7571 16.8156 5.3425 16.8965 4.89984L21.7429 13.2942Z" fill="white"/>
</svg>
