<svg width="22" height="22" viewBox="0 0 22 22" fill="none" xmlns="http://www.w3.org/2000/svg">
<path d="M15.4 6.5V3.2H6.6V6.5H4.4V1H17.6V6.5H15.4ZM17.6 11.45C17.9117 11.45 18.1729 11.3446 18.3838 11.1338C18.5946 10.9229 18.7 10.6617 18.7 10.35C18.7 10.0383 18.5946 9.77708 18.3838 9.56625C18.1729 9.35542 17.9117 9.25 17.6 9.25C17.2883 9.25 17.0271 9.35542 16.8163 9.56625C16.6054 9.77708 16.5 10.0383 16.5 10.35C16.5 10.6617 16.6054 10.9229 16.8163 11.1338C17.0271 11.3446 17.2883 11.45 17.6 11.45ZM15.4 18.6V14.2H6.6V18.6H15.4ZM17.6 20.8H4.4V16.4H0V9.8C0 8.865 0.320833 8.08125 0.962499 7.44875C1.60417 6.81625 2.38333 6.5 3.3 6.5H18.7C19.635 6.5 20.4188 6.81625 21.0513 7.44875C21.6838 8.08125 22 8.865 22 9.8V16.4H17.6V20.8ZM19.8 14.2V9.8C19.8 9.48833 19.6946 9.22708 19.4838 9.01625C19.2729 8.80542 19.0117 8.7 18.7 8.7H3.3C2.98833 8.7 2.72708 8.80542 2.51625 9.01625C2.30542 9.22708 2.2 9.48833 2.2 9.8V14.2H4.4V12H17.6V14.2H19.8Z" fill="white"/>
</svg>
