<svg width="22" height="22" viewBox="0 0 22 22" fill="none" xmlns="http://www.w3.org/2000/svg">
<path d="M2.2 19.6C1.595 19.6 1.07708 19.3846 0.64625 18.9537C0.215417 18.5229 0 18.005 0 17.4V4.2C0 3.595 0.215417 3.07708 0.64625 2.64625C1.07708 2.21542 1.595 2 2.2 2H8.8L11 4.2H19.8C20.405 4.2 20.9229 4.41543 21.3537 4.84625C21.7846 5.27707 22 5.795 22 6.4V17.4C22 18.005 21.7846 18.5229 21.3537 18.9537C20.9229 19.3846 20.405 19.6 19.8 19.6H2.2ZM2.2 17.4H19.8V6.4H10.0925L7.8925 4.2H2.2V17.4Z" fill="white"/>
<path d="M11 16.5C10.65 16.5 10.3542 16.3792 10.1125 16.1375C9.87083 15.8958 9.75 15.6 9.75 15.25C9.75 14.9 9.87083 14.6042 10.1125 14.3625C10.3542 14.1208 10.65 14 11 14C11.35 14 11.6458 14.1208 11.8875 14.3625C12.1292 14.6042 12.25 14.9 12.25 15.25C12.25 15.6 12.1292 15.8958 11.8875 16.1375C11.6458 16.3792 11.35 16.5 11 16.5ZM8.175 13.675L7.125 12.6C7.61667 12.1083 8.19375 11.7188 8.85625 11.4313C9.51875 11.1438 10.2333 11 11 11C11.7667 11 12.4813 11.1458 13.1438 11.4375C13.8063 11.7292 14.3833 12.125 14.875 12.625L13.825 13.675C13.4583 13.3083 13.0333 13.0208 12.55 12.8125C12.0667 12.6042 11.55 12.5 11 12.5C10.45 12.5 9.93333 12.6042 9.45 12.8125C8.96667 13.0208 8.54167 13.3083 8.175 13.675ZM6.05 11.55L5 10.5C5.76667 9.71667 6.6625 9.10417 7.6875 8.6625C8.7125 8.22083 9.81667 8 11 8C12.1833 8 13.2875 8.22083 14.3125 8.6625C15.3375 9.10417 16.2333 9.71667 17 10.5L15.95 11.55C15.3083 10.9083 14.5646 10.4063 13.7188 10.0438C12.8729 9.68125 11.9667 9.5 11 9.5C10.0333 9.5 9.12708 9.68125 8.28125 10.0438C7.43542 10.4063 6.69167 10.9083 6.05 11.55Z" fill="white"/>
</svg>
