<svg width="22" height="22" viewBox="0 0 22 22" fill="none" xmlns="http://www.w3.org/2000/svg">
<path d="M2.04651 19.3721C1.48372 19.3721 1.00194 19.1717 0.601164 18.7709C0.200388 18.3702 0 17.8884 0 17.3256V5.04652C0 4.48373 0.200388 4.00193 0.601164 3.60116C1.00194 3.20039 1.48372 3 2.04651 3H8.18606L10.2325 5.04652H18.4186C18.9814 5.04652 19.4632 5.24689 19.8639 5.64767C20.2647 6.04844 20.4651 6.53024 20.4651 7.09303H9.38836L7.34185 5.04652H2.04651V17.3256L4.50233 9.13955H22L19.3651 17.9139C19.2287 18.3574 18.9771 18.7112 18.6105 18.9756C18.2438 19.2399 17.8388 19.3721 17.3954 19.3721H2.04651ZM4.19537 17.3256H17.3954L19.2372 11.1861H6.03721L4.19537 17.3256Z" fill="white"/>
</svg>
