<svg width="22" height="22" viewBox="0 0 22 22" fill="none" xmlns="http://www.w3.org/2000/svg">
<path d="M2.2 19.6C1.595 19.6 1.07708 19.3846 0.64625 18.9537C0.215417 18.5229 0 18.005 0 17.4V4.2C0 3.595 0.215417 3.07708 0.64625 2.64625C1.07708 2.21542 1.595 2 2.2 2H8.8L11 4.2H19.8C20.405 4.2 20.9229 4.41543 21.3537 4.84625C21.7846 5.27707 22 5.795 22 6.4V17.4C22 18.005 21.7846 18.5229 21.3537 18.9537C20.9229 19.3846 20.405 19.6 19.8 19.6H2.2ZM2.2 17.4H19.8V6.4H10.0925L7.8925 4.2H2.2V17.4Z" fill="white"/>
</svg>
