<svg width="22" height="22" viewBox="0 0 22 22" fill="none" xmlns="http://www.w3.org/2000/svg">
<path d="M4.88886 17.1111H13.4445V14.6667H4.88886V17.1111ZM4.88886 12.2222H17.1111V9.77781H4.88886V12.2222ZM4.88886 7.33333H17.1111V4.88886H4.88886V7.33333ZM2.44448 22C1.77219 22 1.1968 21.7607 0.718025 21.282C0.239342 20.8032 0 20.2278 0 19.5555V2.44448C0 1.77219 0.239342 1.1968 0.718025 0.718025C1.1968 0.239342 1.77219 0 2.44448 0H19.5555C20.2278 0 20.8032 0.239342 21.282 0.718025C21.7607 1.1968 22 1.77219 22 2.44448V19.5555C22 20.2278 21.7607 20.8032 21.282 21.282C20.8032 21.7607 20.2278 22 19.5555 22H2.44448ZM2.44448 19.5555H19.5555V2.44448H2.44448V19.5555Z" fill="white"/>
</svg>
