<svg width="22" height="22" viewBox="0 0 22 22" fill="none" xmlns="http://www.w3.org/2000/svg">
<path d="M5.73916 12.6522C5.21308 12.6522 4.76273 12.4649 4.38808 12.0902C4.01344 11.7156 3.82608 11.2652 3.82608 10.7392C3.82608 10.2131 4.01344 9.76272 4.38808 9.38808C4.76273 9.01344 5.21308 8.82608 5.73916 8.82608C6.26523 8.82608 6.71559 9.01344 7.09023 9.38808C7.46488 9.76272 7.65215 10.2131 7.65215 10.7392C7.65215 11.2652 7.46488 11.7156 7.09023 12.0902C6.71559 12.4649 6.26523 12.6522 5.73916 12.6522ZM5.73916 16.4782C4.14489 16.4782 2.78987 15.9203 1.67392 14.8044C0.557974 13.6884 0 12.3333 0 10.7392C0 9.14489 0.557974 7.78987 1.67392 6.67392C2.78987 5.55797 4.14489 5 5.73916 5C6.80726 5 7.77572 5.26308 8.64453 5.78916C9.51344 6.31523 10.2029 7.00869 10.7131 7.86953H19.1305L22 10.7392L17.6956 15.0435L15.7826 13.6087L13.8695 15.0435L11.8369 13.6087H10.7131C10.2029 14.4695 9.51344 15.1631 8.64453 15.6892C7.77572 16.2152 6.80726 16.4782 5.73916 16.4782ZM5.73916 14.5652C6.6319 14.5652 7.41703 14.2942 8.09453 13.7521C8.77213 13.2101 9.22249 12.5246 9.44561 11.6956H12.4348L13.8218 12.6761L15.7826 11.2174L17.4805 12.5326L19.2739 10.7392L18.3174 9.78262H9.44561C9.22249 8.95358 8.77213 8.2681 8.09453 7.72607C7.41703 7.18405 6.6319 6.91308 5.73916 6.91308C4.68692 6.91308 3.7862 7.28772 3.03692 8.03692C2.28772 8.7862 1.91308 9.68692 1.91308 10.7392C1.91308 11.7913 2.28772 12.692 3.03692 13.4413C3.7862 14.1906 4.68692 14.5652 5.73916 14.5652Z" fill="white"/>
</svg>
