<svg width="22" height="22" viewBox="0 0 22 22" fill="none" xmlns="http://www.w3.org/2000/svg">
<path d="M2.2 19.8C1.595 19.8 1.07708 19.5846 0.64625 19.1538C0.215417 18.7229 0 18.205 0 17.6V2.2C0 1.595 0.215417 1.07708 0.64625 0.64625C1.07708 0.215417 1.595 0 2.2 0H17.6C18.205 0 18.7229 0.215417 19.1538 0.64625C19.5846 1.07708 19.8 1.595 19.8 2.2V9.57C19.4517 9.405 19.0942 9.26292 18.7275 9.14375C18.3608 9.02458 17.985 8.9375 17.6 8.8825V2.2H2.2V17.6H8.855C8.91 18.0033 8.99708 18.3883 9.11625 18.755C9.23542 19.1217 9.3775 19.47 9.5425 19.8H2.2ZM2.2 17.6V2.2V8.8825V8.8V17.6ZM4.4 15.4H8.8825C8.9375 15.015 9.02458 14.6392 9.14375 14.2725C9.26292 13.9058 9.39583 13.5483 9.5425 13.2H4.4V15.4ZM4.4 11H11.11C11.6967 10.45 12.3521 9.99167 13.0762 9.625C13.8004 9.25833 14.575 9.01083 15.4 8.8825V8.8H4.4V11ZM4.4 6.6H15.4V4.4H4.4V6.6ZM16.5 22C14.9783 22 13.6813 21.4637 12.6088 20.3912C11.5363 19.3187 11 18.0217 11 16.5C11 14.9783 11.5363 13.6813 12.6088 12.6088C13.6813 11.5363 14.9783 11 16.5 11C18.0217 11 19.3187 11.5363 20.3912 12.6088C21.4637 13.6813 22 14.9783 22 16.5C22 18.0217 21.4637 19.3187 20.3912 20.3912C19.3187 21.4637 18.0217 22 16.5 22ZM15.95 19.8H17.05V17.05H19.8V15.95H17.05V13.2H15.95V15.95H13.2V17.05H15.95V19.8Z" fill="white"/>
</svg>
