<svg width="22" height="22" viewBox="0 0 22 22" fill="none" xmlns="http://www.w3.org/2000/svg">
<path d="M2.2 19.6C1.595 19.6 1.07708 19.3846 0.64625 18.9537C0.215417 18.5229 0 18.005 0 17.4V4.2C0 3.595 0.215417 3.07708 0.64625 2.64625C1.07708 2.21542 1.595 2 2.2 2H15.4C16.005 2 16.5229 2.21542 16.9537 2.64625C17.3846 3.07708 17.6 3.595 17.6 4.2V9.15L22 4.75V16.85L17.6 12.45V17.4C17.6 18.005 17.3846 18.5229 16.9537 18.9537C16.5229 19.3846 16.005 19.6 15.4 19.6H2.2ZM2.2 17.4H15.4V4.2H2.2V17.4Z" fill="white"/>
</svg>
