<svg width="22" height="22" viewBox="0 0 22 22" fill="none" xmlns="http://www.w3.org/2000/svg">
<path d="M11 11C9.4875 11 8.19271 10.4615 7.11563 9.38437C6.03854 8.30729 5.5 7.0125 5.5 5.5C5.5 3.9875 6.03854 2.69271 7.11563 1.61563C8.19271 0.538542 9.4875 0 11 0C12.5125 0 13.8073 0.538542 14.8844 1.61563C15.9615 2.69271 16.5 3.9875 16.5 5.5C16.5 7.0125 15.9615 8.30729 14.8844 9.38437C13.8073 10.4615 12.5125 11 11 11ZM0 22V18.15C0 17.3708 0.200475 16.6546 0.601517 16.0015C1.00265 15.3484 1.53542 14.85 2.2 14.5063C3.62083 13.7958 5.06458 13.263 6.53125 12.9078C7.99792 12.5526 9.4875 12.375 11 12.375C12.5125 12.375 14.0021 12.5526 15.4688 12.9078C16.9354 13.263 18.3792 13.7958 19.8 14.5063C20.4646 14.85 20.9974 15.3484 21.3985 16.0015C21.7995 16.6546 22 17.3708 22 18.15V22H0ZM2.75 19.25H19.25V18.15C19.25 17.8979 19.187 17.6687 19.061 17.4625C18.9349 17.2562 18.7688 17.0958 18.5625 16.9813C17.325 16.3625 16.076 15.8985 14.8156 15.5891C13.5552 15.2797 12.2833 15.125 11 15.125C9.71667 15.125 8.44479 15.2797 7.18437 15.5891C5.92396 15.8985 4.675 16.3625 3.4375 16.9813C3.23125 17.0958 3.06515 17.2562 2.93911 17.4625C2.81307 17.6687 2.75 17.8979 2.75 18.15V19.25ZM11 8.25C11.7563 8.25 12.4037 7.98068 12.9422 7.44214C13.4808 6.9036 13.75 6.25625 13.75 5.5C13.75 4.74375 13.4808 4.0964 12.9422 3.55786C12.4037 3.01932 11.7563 2.75 11 2.75C10.2438 2.75 9.5964 3.01932 9.05786 3.55786C8.51932 4.0964 8.25 4.74375 8.25 5.5C8.25 6.25625 8.51932 6.9036 9.05786 7.44214C9.5964 7.98068 10.2438 8.25 11 8.25Z" fill="white"/>
</svg>
