<svg width="22" height="22" viewBox="0 0 22 22" fill="none" xmlns="http://www.w3.org/2000/svg">
<path d="M5.09523 22C4.51901 22 4.02575 21.7949 3.61545 21.3846C3.20515 20.9743 3 20.481 3 19.9048V9.42856C3 8.85234 3.20515 8.35908 3.61545 7.94878C4.02575 7.53848 4.51901 7.33333 5.09523 7.33333H6.14288V5.23811C6.14288 3.78886 6.65356 2.55356 7.675 1.53212C8.69644 0.510675 9.93174 0 11.381 0C12.8301 0 14.0655 0.510675 15.0869 1.53212C16.1083 2.55356 16.619 3.78886 16.619 5.23811V7.33333H17.6667C18.2429 7.33333 18.7361 7.53848 19.1464 7.94878C19.5567 8.35908 19.7619 8.85234 19.7619 9.42856V19.9048C19.7619 20.481 19.5567 20.9743 19.1464 21.3846C18.7361 21.7949 18.2429 22 17.6667 22H5.09523ZM5.09523 19.9048H17.6667V9.42856H5.09523V19.9048ZM11.381 16.7619C11.9571 16.7619 12.4504 16.5567 12.8607 16.1464C13.2711 15.7361 13.4762 15.2429 13.4762 14.6667C13.4762 14.0905 13.2711 13.5972 12.8607 13.1869C12.4504 12.7766 11.9571 12.5714 11.381 12.5714C10.8048 12.5714 10.3115 12.7766 9.90122 13.1869C9.49092 13.5972 9.28568 14.0905 9.28568 14.6667C9.28568 15.2429 9.49092 15.7361 9.90122 16.1464C10.3115 16.5567 10.8048 16.7619 11.381 16.7619ZM8.23811 7.33333H14.5238V5.23811C14.5238 4.36508 14.2183 3.62303 13.6071 3.01189C12.9961 2.40075 12.2539 2.09522 11.381 2.09522C10.508 2.09522 9.76592 2.40075 9.15478 3.01189C8.54363 3.62303 8.23811 4.36508 8.23811 5.23811V7.33333Z" fill="white"/>
</svg>
