<svg width="22" height="22" viewBox="0 0 22 22" fill="none" xmlns="http://www.w3.org/2000/svg">
<path d="M2.44448 22C1.77219 22 1.1968 21.7607 0.718025 21.282C0.239342 20.8032 0 20.2278 0 19.5555V2.44448C0 1.77219 0.239342 1.1968 0.718025 0.718025C1.1968 0.239342 1.77219 0 2.44448 0H19.5555C20.2278 0 20.8032 0.239342 21.282 0.718025C21.7607 1.1968 22 1.77219 22 2.44448V19.5555C22 20.2278 21.7607 20.8032 21.282 21.282C20.8032 21.7607 20.2278 22 19.5555 22H2.44448ZM2.44448 19.5555H19.5555V15.8889H15.8889C15.2778 16.663 14.5495 17.2639 13.7042 17.6917C12.8588 18.1195 11.9574 18.3333 11 18.3333C10.0426 18.3333 9.14118 18.1195 8.29583 17.6917C7.45048 17.2639 6.72219 16.663 6.11114 15.8889H2.44448V19.5555ZM11 15.8889C11.774 15.8889 12.4768 15.6648 13.1083 15.2167C13.7398 14.7685 14.1778 14.1778 14.4222 13.4445H19.5555V2.44448H2.44448V13.4445H7.57781C7.82219 14.1778 8.26018 14.7685 8.89167 15.2167C9.52316 15.6648 10.226 15.8889 11 15.8889ZM11 13.4445L6.11114 8.55553L7.82219 6.78333L9.77781 8.73886V3.66667H12.2222V8.73886L14.1778 6.78333L15.8889 8.55553L11 13.4445Z" fill="white"/>
</svg>
