<svg width="22" height="22" viewBox="0 0 22 22" fill="none" xmlns="http://www.w3.org/2000/svg">
<path d="M1.99998 19C1.44998 19 0.979183 18.8042 0.587491 18.4125C0.1958 18.0209 0 17.55 0 17V4.99998C0 4.44998 0.1958 3.97918 0.587491 3.58749C0.979183 3.1958 1.44998 3 1.99998 3H18C18.55 3 19.0208 3.1958 19.4125 3.58749C19.8041 3.97918 20 4.44998 20 4.99998V8.97502H19L18 9.00004V6.99997L10 12L1.99998 6.99997V17H14V19H1.99998ZM10 10L18 4.99998H1.99998L10 10ZM17 19C16.7167 19 16.4792 18.9042 16.2875 18.7125C16.0958 18.5208 16 18.2833 16 18V15C16 14.7167 16.0958 14.4791 16.2875 14.2875C16.4792 14.0958 16.7167 14 17 14V13C17 12.45 17.1958 11.9792 17.5875 11.5875C17.9791 11.1958 18.45 11 19 11C19.55 11 20.0208 11.1958 20.4125 11.5875C20.8042 11.9792 21 12.45 21 13V14C21.2834 14 21.5209 14.0958 21.7125 14.2875C21.9042 14.4791 22 14.7167 22 15V18C22 18.2833 21.9042 18.5208 21.7125 18.7125C21.5209 18.9042 21.2834 19 21 19H17ZM18 14H20V13C20 12.7167 19.9041 12.4792 19.7125 12.2875C19.5209 12.0958 19.2834 12 19 12C18.7167 12 18.4792 12.0958 18.2875 12.2875C18.0958 12.4792 18 12.7167 18 13V14Z" fill="white"/>
</svg>
