<svg width="22" height="22" viewBox="0 0 22 22" fill="none" xmlns="http://www.w3.org/2000/svg">
<path d="M6.21053 3.47369C5.72804 3.47369 5.31797 3.64251 4.98024 3.98024C4.64251 4.31797 4.47369 4.72804 4.47369 5.21053C4.47369 5.69303 4.64251 6.1031 4.98024 6.44083C5.31797 6.77856 5.72804 6.94738 6.21053 6.94738C6.69303 6.94738 7.1031 6.77856 7.44083 6.44083C7.77856 6.1031 7.94738 5.69303 7.94738 5.21053C7.94738 4.72804 7.77856 4.31797 7.44083 3.98024C7.1031 3.64251 6.69303 3.47369 6.21053 3.47369ZM6.21053 15.0526C5.72804 15.0526 5.31797 15.2215 4.98024 15.5593C4.64251 15.897 4.47369 16.3071 4.47369 16.7895C4.47369 17.272 4.64251 17.682 4.98024 18.0198C5.31797 18.3575 5.72804 18.5263 6.21053 18.5263C6.69303 18.5263 7.1031 18.3575 7.44083 18.0198C7.77856 17.682 7.94738 17.272 7.94738 16.7895C7.94738 16.3071 7.77856 15.897 7.44083 15.5593C7.1031 15.2215 6.69303 15.0526 6.21053 15.0526ZM2.15787 0H20.6843C21.0123 0 21.2873 0.110985 21.5093 0.332867C21.7311 0.554836 21.8421 0.829864 21.8421 1.15787V9.2632C21.8421 9.5912 21.7311 9.86623 21.5093 10.0882C21.2873 10.3101 21.0123 10.4211 20.6843 10.4211H2.15787C1.82986 10.4211 1.55484 10.3101 1.33287 10.0882C1.11099 9.86623 1 9.5912 1 9.2632V1.15787C1 0.829864 1.11099 0.554836 1.33287 0.332867C1.55484 0.110985 1.82986 0 2.15787 0ZM3.31582 2.31582V8.10524H19.5263V2.31582H3.31582ZM2.15787 11.5789H20.6843C21.0123 11.5789 21.2873 11.6899 21.5093 11.9119C21.7311 12.1338 21.8421 12.4088 21.8421 12.7369V20.8421C21.8421 21.1702 21.7311 21.4452 21.5093 21.6671C21.2873 21.8891 21.0123 22 20.6843 22H2.15787C1.82986 22 1.55484 21.8891 1.33287 21.6671C1.11099 21.4452 1 21.1702 1 20.8421V12.7369C1 12.4088 1.11099 12.1338 1.33287 11.9119C1.55484 11.6899 1.82986 11.5789 2.15787 11.5789ZM3.31582 13.8948V19.6843H19.5263V13.8948H3.31582Z" fill="white"/>
</svg>
