<svg width="64" height="64" viewBox="0 0 64 64" fill="none" xmlns="http://www.w3.org/2000/svg">
<path d="M6.4 57.2C4.64 57.2 3.13333 56.5733 1.88 55.32C0.626667 54.0667 0 52.56 0 50.8V12.4C0 10.64 0.626667 9.13333 1.88 7.88C3.13333 6.62667 4.64 6 6.4 6H25.6L32 12.4H57.6C59.36 12.4 60.8667 13.0267 62.12 14.28C63.3733 15.5333 64 17.04 64 18.8V50.8C64 52.56 63.3733 54.0667 62.12 55.32C60.8667 56.5733 59.36 57.2 57.6 57.2H6.4ZM6.4 50.8H57.6V18.8H29.36L22.96 12.4H6.4V50.8Z" fill="#CFB53B"/>
<path d="M27.2 45.6V43.2H29.6V40.8H22.4C21.74 40.8 21.175 40.565 20.705 40.095C20.235 39.625 20 39.06 20 38.4V26.4C20 25.74 20.235 25.175 20.705 24.705C21.175 24.235 21.74 24 22.4 24H41.6C42.26 24 42.825 24.235 43.295 24.705C43.765 25.175 44 25.74 44 26.4V38.4C44 39.06 43.765 39.625 43.295 40.095C42.825 40.565 42.26 40.8 41.6 40.8H34.4V43.2H36.8V45.6H27.2ZM22.4 38.4H41.6V26.4H22.4V38.4Z" fill="#CFB53B"/>
</svg>
