<svg width="64" height="64" viewBox="0 0 64 64" fill="none" xmlns="http://www.w3.org/2000/svg">
<path d="M6.4 56.2C4.64 56.2 3.13333 55.5733 1.88 54.32C0.626667 53.0667 0 51.56 0 49.8V11.4C0 9.64 0.626667 8.13333 1.88 6.88C3.13333 5.62667 4.64 5 6.4 5H25.6L32 11.4H57.6C59.36 11.4 60.8667 12.0267 62.12 13.28C63.3733 14.5333 64 16.04 64 17.8V49.8C64 51.56 63.3733 53.0667 62.12 54.32C60.8667 55.5733 59.36 56.2 57.6 56.2H6.4ZM6.4 49.8H57.6V17.8H29.36L22.96 11.4H6.4V49.8Z" fill="#CFB53B"/>
<path d="M31.6 35.2C30.42 35.2 29.425 34.795 28.615 33.985C27.805 33.175 27.4 32.18 27.4 31C27.4 29.82 27.805 28.825 28.615 28.015C29.425 27.205 30.42 26.8 31.6 26.8C32.78 26.8 33.775 27.205 34.585 28.015C35.395 28.825 35.8 29.82 35.8 31C35.8 32.18 35.395 33.175 34.585 33.985C33.775 34.795 32.78 35.2 31.6 35.2ZM31.6 32.8C32.12 32.8 32.55 32.63 32.89 32.29C33.23 31.95 33.4 31.52 33.4 31C33.4 30.48 33.23 30.05 32.89 29.71C32.55 29.37 32.12 29.2 31.6 29.2C31.08 29.2 30.65 29.37 30.31 29.71C29.97 30.05 29.8 30.48 29.8 31C29.8 31.52 29.97 31.95 30.31 32.29C30.65 32.63 31.08 32.8 31.6 32.8ZM31.6 46C28.82 45.3 26.525 43.705 24.715 41.215C22.905 38.725 22 35.96 22 32.92V25.6L31.6 22L41.2 25.6V32.92C41.2 35.96 40.295 38.725 38.485 41.215C36.675 43.705 34.38 45.3 31.6 46ZM31.6 24.55L24.4 27.25V32.92C24.4 34 24.55 35.05 24.85 36.07C25.15 37.09 25.56 38.05 26.08 38.95C26.92 38.53 27.8 38.2 28.72 37.96C29.64 37.72 30.6 37.6 31.6 37.6C32.6 37.6 33.56 37.72 34.48 37.96C35.4 38.2 36.28 38.53 37.12 38.95C37.64 38.05 38.05 37.09 38.35 36.07C38.65 35.05 38.8 34 38.8 32.92V27.25L31.6 24.55ZM31.6 40C30.88 40 30.18 40.08 29.5 40.24C28.82 40.4 28.17 40.62 27.55 40.9C28.13 41.5 28.76 42.02 29.44 42.46C30.12 42.9 30.84 43.24 31.6 43.48C32.36 43.24 33.08 42.9 33.76 42.46C34.44 42.02 35.07 41.5 35.65 40.9C35.03 40.62 34.38 40.4 33.7 40.24C33.02 40.08 32.32 40 31.6 40Z" fill="#CFB53B"/>
<rect width="64" height="64" fill="white" fill-opacity="0.01"/>
</svg>
