<svg width="64" height="64" viewBox="0 0 64 64" fill="none" xmlns="http://www.w3.org/2000/svg">
<path d="M6.4 57.2C4.64 57.2 3.13333 56.5733 1.88 55.32C0.626667 54.0667 0 52.56 0 50.8V12.4C0 10.64 0.626667 9.13333 1.88 7.88C3.13333 6.62667 4.64 6 6.4 6H25.6L32 12.4H57.6C59.36 12.4 60.8667 13.0267 62.12 14.28C63.3733 15.5333 64 17.04 64 18.8V50.8C64 52.56 63.3733 54.0667 62.12 55.32C60.8667 56.5733 59.36 57.2 57.6 57.2H6.4ZM6.4 50.8H57.6V18.8H29.36L22.96 12.4H6.4V50.8Z" fill="#CFB53B"/>
<path d="M32 47C28.9333 47 26.2611 45.9833 23.9833 43.95C21.7056 41.9167 20.4 39.3778 20.0667 36.3333H22.8C23.1111 38.6444 24.1389 40.5556 25.8833 42.0667C27.6278 43.5778 29.6667 44.3333 32 44.3333C34.6 44.3333 36.8056 43.4278 38.6167 41.6167C40.4278 39.8056 41.3333 37.6 41.3333 35C41.3333 32.4 40.4278 30.1944 38.6167 28.3833C36.8056 26.5722 34.6 25.6667 32 25.6667C30.4667 25.6667 29.0333 26.0222 27.7 26.7333C26.3667 27.4444 25.2444 28.4222 24.3333 29.6667H28V32.3333H20V24.3333H22.6667V27.4667C23.8 26.0444 25.1833 24.9444 26.8167 24.1667C28.45 23.3889 30.1778 23 32 23C33.6667 23 35.2278 23.3167 36.6833 23.95C38.1389 24.5833 39.4056 25.4389 40.4833 26.5167C41.5611 27.5944 42.4167 28.8611 43.05 30.3167C43.6833 31.7722 44 33.3333 44 35C44 36.6667 43.6833 38.2278 43.05 39.6833C42.4167 41.1389 41.5611 42.4056 40.4833 43.4833C39.4056 44.5611 38.1389 45.4167 36.6833 46.05C35.2278 46.6833 33.6667 47 32 47ZM35.7333 40.6L30.6667 35.5333V28.3333H33.3333V34.4667L37.6 38.7333L35.7333 40.6Z" fill="#CFB53B"/>
<rect width="64" height="64" fill="white" fill-opacity="0.01"/>
</svg>
