<svg width="64" height="64" viewBox="0 0 64 64" fill="none" xmlns="http://www.w3.org/2000/svg">
<path d="M6.4 57.2C4.64 57.2 3.13333 56.5733 1.88 55.32C0.626667 54.0667 0 52.56 0 50.8V12.4C0 10.64 0.626667 9.13333 1.88 7.88C3.13333 6.62667 4.64 6 6.4 6H25.6L32 12.4H57.6C59.36 12.4 60.8667 13.0267 62.12 14.28C63.3733 15.5333 64 17.04 64 18.8V50.8C64 52.56 63.3733 54.0667 62.12 55.32C60.8667 56.5733 59.36 57.2 57.6 57.2H6.4ZM6.4 50.8H57.6V18.8H29.36L22.96 12.4H6.4V50.8Z" fill="#CFB53B"/>
<path d="M23.4 44.2C22.74 44.2 22.175 43.965 21.705 43.495C21.235 43.025 21 42.46 21 41.8V27.4C21 26.74 21.235 26.175 21.705 25.705C22.175 25.235 22.74 25 23.4 25H37.8C38.46 25 39.025 25.235 39.495 25.705C39.965 26.175 40.2 26.74 40.2 27.4V32.8L45 28V41.2L40.2 36.4V41.8C40.2 42.46 39.965 43.025 39.495 43.495C39.025 43.965 38.46 44.2 37.8 44.2H23.4ZM23.4 41.8H37.8V27.4H23.4V41.8Z" fill="#CFB53B"/>
<rect width="64" height="64" fill="white" fill-opacity="0.01"/>
</svg>
