<svg width="64" height="64" viewBox="0 0 64 64" fill="none" xmlns="http://www.w3.org/2000/svg">
<path d="M6.4 57.2C4.64 57.2 3.13333 56.5733 1.88 55.32C0.626667 54.0667 0 52.56 0 50.8V12.4C0 10.64 0.626667 9.13333 1.88 7.88C3.13333 6.62667 4.64 6 6.4 6H25.6L32 12.4H57.6C59.36 12.4 60.8667 13.0267 62.12 14.28C63.3733 15.5333 64 17.04 64 18.8V50.8C64 52.56 63.3733 54.0667 62.12 55.32C60.8667 56.5733 59.36 57.2 57.6 57.2H6.4ZM6.4 50.8H57.6V18.8H29.36L22.96 12.4H6.4V50.8Z" fill="#CFB53B"/>
<path d="M25.3333 41.6667H34.6667V39H25.3333V41.6667ZM25.3333 36.3333H38.6667V33.6667H25.3333V36.3333ZM25.3333 31H38.6667V28.3333H25.3333V31ZM22.6667 47C21.9333 47 21.3056 46.7389 20.7833 46.2167C20.2611 45.6944 20 45.0667 20 44.3333V25.6667C20 24.9333 20.2611 24.3056 20.7833 23.7833C21.3056 23.2611 21.9333 23 22.6667 23H41.3333C42.0667 23 42.6944 23.2611 43.2167 23.7833C43.7389 24.3056 44 24.9333 44 25.6667V44.3333C44 45.0667 43.7389 45.6944 43.2167 46.2167C42.6944 46.7389 42.0667 47 41.3333 47H22.6667ZM22.6667 44.3333H41.3333V25.6667H22.6667V44.3333Z" fill="#CFB53B"/>
<rect width="64" height="64" fill="white" fill-opacity="0.01"/>
</svg>
