<svg width="64" height="64" viewBox="0 0 64 64" fill="none" xmlns="http://www.w3.org/2000/svg">
<path d="M6.4 57.2C4.64 57.2 3.13333 56.5733 1.88 55.32C0.626667 54.0667 0 52.56 0 50.8V12.4C0 10.64 0.626667 9.13333 1.88 7.88C3.13333 6.62667 4.64 6 6.4 6H25.6L32 12.4H57.6C59.36 12.4 60.8667 13.0267 62.12 14.28C63.3733 15.5333 64 17.04 64 18.8V50.8C64 52.56 63.3733 54.0667 62.12 55.32C60.8667 56.5733 59.36 57.2 57.6 57.2H6.4ZM6.4 50.8H57.6V18.8H29.36L22.96 12.4H6.4V50.8Z" fill="#CFB53B"/>
<path d="M29.3333 47C27.8667 47 26.6111 46.4778 25.5667 45.4333C24.5222 44.3889 24 43.1333 24 41.6667C24 40.2 24.5222 38.9444 25.5667 37.9C26.6111 36.8556 27.8667 36.3333 29.3333 36.3333C29.8444 36.3333 30.3167 36.3944 30.75 36.5167C31.1833 36.6389 31.6 36.8222 32 37.0667V23H40V28.3333H34.6667V41.6667C34.6667 43.1333 34.1444 44.3889 33.1 45.4333C32.0556 46.4778 30.8 47 29.3333 47Z" fill="#CFB53B"/>
</svg>
