<svg width="64" height="64" viewBox="0 0 64 64" fill="none" xmlns="http://www.w3.org/2000/svg">
<path d="M6.4 57.2C4.64 57.2 3.13333 56.5733 1.88 55.32C0.626667 54.0667 0 52.56 0 50.8V12.4C0 10.64 0.626667 9.13333 1.88 7.88C3.13333 6.62667 4.64 6 6.4 6H25.6L32 12.4H57.6C59.36 12.4 60.8667 13.0267 62.12 14.28C63.3733 15.5333 64 17.04 64 18.8V50.8C64 52.56 63.3733 54.0667 62.12 55.32C60.8667 56.5733 59.36 57.2 57.6 57.2H6.4ZM6.4 50.8H57.6V18.8H29.36L22.96 12.4H6.4V50.8Z" fill="#CFB53B"/>
<path d="M22.4 44.6C21.74 44.6 21.175 44.365 20.705 43.895C20.235 43.425 20 42.86 20 42.2V25.4C20 24.74 20.235 24.175 20.705 23.705C21.175 23.235 21.74 23 22.4 23H39.2C39.86 23 40.425 23.235 40.895 23.705C41.365 24.175 41.6 24.74 41.6 25.4V33.44C41.22 33.26 40.83 33.105 40.43 32.975C40.03 32.845 39.62 32.75 39.2 32.69V25.4H22.4V42.2H29.66C29.72 42.64 29.815 43.06 29.945 43.46C30.075 43.86 30.23 44.24 30.41 44.6H22.4ZM22.4 42.2V25.4V32.69V32.6V42.2ZM24.8 39.8H29.69C29.75 39.38 29.845 38.97 29.975 38.57C30.105 38.17 30.25 37.78 30.41 37.4H24.8V39.8ZM24.8 35H32.12C32.76 34.4 33.475 33.9 34.265 33.5C35.055 33.1 35.9 32.83 36.8 32.69V32.6H24.8V35ZM24.8 30.2H36.8V27.8H24.8V30.2ZM38 47C36.34 47 34.925 46.415 33.755 45.245C32.585 44.075 32 42.66 32 41C32 39.34 32.585 37.925 33.755 36.755C34.925 35.585 36.34 35 38 35C39.66 35 41.075 35.585 42.245 36.755C43.415 37.925 44 39.34 44 41C44 42.66 43.415 44.075 42.245 45.245C41.075 46.415 39.66 47 38 47ZM37.4 44.6H38.6V41.6H41.6V40.4H38.6V37.4H37.4V40.4H34.4V41.6H37.4V44.6Z" fill="#CFB53B"/>
</svg>
