<svg width="64" height="64" viewBox="0 0 64 64" fill="none" xmlns="http://www.w3.org/2000/svg">
<path d="M6.4 57.2C4.64 57.2 3.13333 56.5733 1.88 55.32C0.626667 54.0667 0 52.56 0 50.8V12.4C0 10.64 0.626667 9.13333 1.88 7.88C3.13333 6.62667 4.64 6 6.4 6H25.6L32 12.4H57.6C59.36 12.4 60.8667 13.0267 62.12 14.28C63.3733 15.5333 64 17.04 64 18.8V50.8C64 52.56 63.3733 54.0667 62.12 55.32C60.8667 56.5733 59.36 57.2 57.6 57.2H6.4ZM6.4 50.8H57.6V18.8H29.36L22.96 12.4H6.4V50.8Z" fill="#CFB53B"/>
<path d="M22.6667 47C21.9333 47 21.3056 46.7389 20.7833 46.2167C20.2611 45.6944 20 45.0667 20 44.3333V25.6667C20 24.9333 20.2611 24.3056 20.7833 23.7833C21.3056 23.2611 21.9333 23 22.6667 23H41.3333C42.0667 23 42.6944 23.2611 43.2167 23.7833C43.7389 24.3056 44 24.9333 44 25.6667V44.3333C44 45.0667 43.7389 45.6944 43.2167 46.2167C42.6944 46.7389 42.0667 47 41.3333 47H22.6667ZM22.6667 44.3333H41.3333V25.6667H22.6667V44.3333ZM24 41.6667H40L35 35L31 40.3333L28 36.3333L24 41.6667ZM27.3333 32.3333C27.8889 32.3333 28.3611 32.1389 28.75 31.75C29.1389 31.3611 29.3333 30.8889 29.3333 30.3333C29.3333 29.7778 29.1389 29.3056 28.75 28.9167C28.3611 28.5278 27.8889 28.3333 27.3333 28.3333C26.7778 28.3333 26.3056 28.5278 25.9167 28.9167C25.5278 29.3056 25.3333 29.7778 25.3333 30.3333C25.3333 30.8889 25.5278 31.3611 25.9167 31.75C26.3056 32.1389 26.7778 32.3333 27.3333 32.3333Z" fill="#CFB53B"/>
</svg>
