<svg width="64" height="64" viewBox="0 0 64 64" fill="none" xmlns="http://www.w3.org/2000/svg">
<path d="M6.4 57.2C4.64 57.2 3.13333 56.5733 1.88 55.32C0.626667 54.0667 0 52.56 0 50.8V12.4C0 10.64 0.626667 9.13333 1.88 7.88C3.13333 6.62667 4.64 6 6.4 6H25.6L32 12.4H57.6C59.36 12.4 60.8667 13.0267 62.12 14.28C63.3733 15.5333 64 17.04 64 18.8V50.8C64 52.56 63.3733 54.0667 62.12 55.32C60.8667 56.5733 59.36 57.2 57.6 57.2H6.4ZM6.4 50.8H57.6V18.8H29.36L22.96 12.4H6.4V50.8Z" fill="#CFB53B"/>
<path d="M26.2609 37.3478C25.687 37.3478 25.1957 37.1435 24.787 36.7348C24.3783 36.3261 24.1739 35.8348 24.1739 35.2609C24.1739 34.687 24.3783 34.1957 24.787 33.787C25.1957 33.3783 25.687 33.1739 26.2609 33.1739C26.8348 33.1739 27.3261 33.3783 27.7348 33.787C28.1435 34.1957 28.3478 34.687 28.3478 35.2609C28.3478 35.8348 28.1435 36.3261 27.7348 36.7348C27.3261 37.1435 26.8348 37.3478 26.2609 37.3478ZM26.2609 41.5217C24.5217 41.5217 23.0435 40.913 21.8261 39.6957C20.6087 38.4783 20 37 20 35.2609C20 33.5217 20.6087 32.0435 21.8261 30.8261C23.0435 29.6087 24.5217 29 26.2609 29C27.4261 29 28.4826 29.287 29.4304 29.8609C30.3783 30.4348 31.1304 31.1913 31.687 32.1304H40.8696L44 35.2609L39.3043 39.9565L37.2174 38.3913L35.1304 39.9565L32.913 38.3913H31.687C31.1304 39.3304 30.3783 40.087 29.4304 40.6609C28.4826 41.2348 27.4261 41.5217 26.2609 41.5217ZM26.2609 39.4348C27.2348 39.4348 28.0913 39.1391 28.8304 38.5478C29.5696 37.9565 30.0609 37.2087 30.3043 36.3043H33.5652L35.0783 37.3739L37.2174 35.7826L39.0696 37.2174L41.0261 35.2609L39.9826 34.2174H30.3043C30.0609 33.313 29.5696 32.5652 28.8304 31.9739C28.0913 31.3826 27.2348 31.087 26.2609 31.087C25.113 31.087 24.1304 31.4957 23.313 32.313C22.4957 33.1304 22.087 34.113 22.087 35.2609C22.087 36.4087 22.4957 37.3913 23.313 38.2087C24.1304 39.0261 25.113 39.4348 26.2609 39.4348Z" fill="#CFB53B"/>
</svg>
