<svg width="64" height="64" viewBox="0 0 64 64" fill="none" xmlns="http://www.w3.org/2000/svg">
<path d="M6.4 57.2C4.64 57.2 3.13333 56.5733 1.88 55.32C0.626667 54.0667 0 52.56 0 50.8V12.4C0 10.64 0.626667 9.13333 1.88 7.88C3.13333 6.62667 4.64 6 6.4 6H25.6L32 12.4H57.6C59.36 12.4 60.8667 13.0267 62.12 14.28C63.3733 15.5333 64 17.04 64 18.8V50.8C64 52.56 63.3733 54.0667 62.12 55.32C60.8667 56.5733 59.36 57.2 57.6 57.2H6.4ZM6.4 50.8H57.6V18.8H29.36L22.96 12.4H6.4V50.8Z" fill="#CFB53B"/>
<path d="M32 41L24.5 33.5L26.6 31.325L30.5 35.225V23H33.5V35.225L37.4 31.325L39.5 33.5L32 41ZM23 47C22.175 47 21.4688 46.7063 20.8813 46.1188C20.2938 45.5313 20 44.825 20 44V39.5H23V44H41V39.5H44V44C44 44.825 43.7063 45.5313 43.1188 46.1188C42.5313 46.7063 41.825 47 41 47H23Z" fill="#CFB53B"/>
</svg>
