<svg width="64" height="64" viewBox="0 0 64 64" fill="none" xmlns="http://www.w3.org/2000/svg">
<path d="M6.4 57.2C4.64 57.2 3.13333 56.5733 1.88 55.32C0.626667 54.0667 0 52.56 0 50.8V12.4C0 10.64 0.626667 9.13333 1.88 7.88C3.13333 6.62667 4.64 6 6.4 6H25.6L32 12.4H57.6C59.36 12.4 60.8667 13.0267 62.12 14.28C63.3733 15.5333 64 17.04 64 18.8V50.8C64 52.56 63.3733 54.0667 62.12 55.32C60.8667 56.5733 59.36 57.2 57.6 57.2H6.4ZM6.4 50.8H57.6V18.8H29.36L22.96 12.4H6.4V50.8Z" fill="#CFB53B"/>
<path d="M26.5339 43.3786C26.2118 43.3786 25.9127 43.2942 25.6366 43.1255C25.3605 42.9568 25.1381 42.7344 24.9694 42.4583L22.8068 38.6852C22.6381 38.4092 22.5537 38.1024 22.5537 37.765C22.5537 37.4275 22.6381 37.1208 22.8068 36.8447L28.6505 26.8138C28.8192 26.5071 29.0454 26.277 29.3292 26.1236C29.6129 25.9703 29.9158 25.8936 30.2379 25.8936H34.5632C34.8853 25.8936 35.1882 25.9703 35.4719 26.1236C35.7557 26.277 35.9819 26.5071 36.1506 26.8138L40.2688 33.8769C40.0387 33.8002 39.8087 33.7503 39.5786 33.7273C39.3485 33.7043 39.1031 33.6928 38.8424 33.6928H38.4513C38.3286 33.6928 38.1982 33.7081 38.0602 33.7388L34.5632 27.7341H30.2379L24.3943 37.765L26.5569 41.538H33.827C33.9957 41.8908 34.1912 42.2206 34.4136 42.5273C34.636 42.8341 34.9006 43.1178 35.2074 43.3786H26.5339ZM28.0293 39.2374L27.3621 38.0641L31.5723 30.725H33.2288L35.5525 34.7741C35.2764 34.9888 35.0348 35.2074 34.8277 35.4298C34.6207 35.6522 34.4251 35.9014 34.2411 36.1775L32.4006 32.9796L29.8698 37.3969H33.6429C33.5202 37.7036 33.4359 38.0065 33.3898 38.3056C33.3438 38.6047 33.3208 38.9153 33.3208 39.2374H28.0293Z" fill="#CFB53B"/>
<path d="M37.4604 38.066L36.7778 39.2305L28.3169 39.2539L27.4886 37.8193L29.8335 33.7824C30.1575 33.9141 30.4676 34.0141 30.7637 34.0822C31.0598 34.1503 31.3734 34.195 31.7046 34.2164L29.8553 37.4093L34.9462 37.3923L33.0596 34.1248C33.3866 34.0776 33.6912 33.9992 33.9732 33.8895C34.2552 33.7798 34.5357 33.6445 34.8146 33.4834L37.4604 38.066Z" fill="#CFB53B"/>
<path d="M42.0099 36.8948C42.171 37.1737 42.2475 37.4749 42.2394 37.7984C42.2313 38.1218 42.1499 38.4256 41.9952 38.7098L39.8089 42.4692C39.6542 42.7534 39.4307 42.9798 39.1385 43.1485C38.8463 43.3172 38.5384 43.3975 38.215 43.3895L26.6061 43.3441C26.2561 43.3514 25.9438 43.2705 25.6691 43.1015C25.3944 42.9324 25.1765 42.7084 25.0154 42.4295L22.8528 38.6837C22.6918 38.4048 22.6067 38.1041 22.5977 37.7817C22.5886 37.4593 22.6748 37.1483 22.8561 36.8488L26.9137 29.7509C26.9623 29.9884 27.0342 30.2126 27.1293 30.4234C27.2244 30.6341 27.3372 30.8524 27.4675 31.0782L27.6631 31.4169C27.7244 31.5232 27.8029 31.6284 27.8985 31.7326L24.4468 37.7635L26.6094 41.5092L38.2182 41.5546L40.4045 37.7951L36.7694 31.4991C36.9906 31.1766 37.1784 30.8423 37.3329 30.4964C37.4873 30.1504 37.6008 29.7794 37.6732 29.3833L42.0099 36.8948Z" fill="#CFB53B"/>
<rect width="64" height="64" fill="white" fill-opacity="0.01"/>
</svg>
