<svg width="64" height="64" viewBox="0 0 64 64" fill="none" xmlns="http://www.w3.org/2000/svg">
<path d="M6.4 57.2C4.64 57.2 3.13333 56.5733 1.88 55.32C0.626667 54.0667 0 52.56 0 50.8V12.4C0 10.64 0.626667 9.13333 1.88 7.88C3.13333 6.62667 4.64 6 6.4 6H25.6L32 12.4H57.6C59.36 12.4 60.8667 13.0267 62.12 14.28C63.3733 15.5333 64 17.04 64 18.8V50.8C64 52.56 63.3733 54.0667 62.12 55.32C60.8667 56.5733 59.36 57.2 57.6 57.2H6.4ZM6.4 50.8H57.6V18.8H29.36L22.96 12.4H6.4V50.8Z" fill="#CFB53B"/>
<path d="M17 38V30H19V32.6667H21.6667V30H23.6667V38H21.6667V34.6667H19V38H17ZM27.3333 38V32H25V30H31.6667V32H29.3333V38H27.3333ZM33 38V31.3333C33 30.9556 33.1278 30.6389 33.3833 30.3833C33.6389 30.1278 33.9556 30 34.3333 30H40.3333C40.7111 30 41.0278 30.1278 41.2833 30.3833C41.5389 30.6389 41.6667 30.9556 41.6667 31.3333V38H39.6667V32H38.3333V36.6667H36.3333V32H35V38H33ZM43.6667 38V30H45.6667V36H49V38H43.6667Z" fill="#CFB53B"/>
</svg>
