<svg width="64" height="64" viewBox="0 0 64 64" fill="none" xmlns="http://www.w3.org/2000/svg">
<path d="M6.4 57.2C4.64 57.2 3.13333 56.5733 1.88 55.32C0.626667 54.0667 0 52.56 0 50.8V12.4C0 10.64 0.626667 9.13333 1.88 7.88C3.13333 6.62667 4.64 6 6.4 6H25.6L32 12.4H57.6C59.36 12.4 60.8667 13.0267 62.12 14.28C63.3733 15.5333 64 17.04 64 18.8V50.8C64 52.56 63.3733 54.0667 62.12 55.32C60.8667 56.5733 59.36 57.2 57.6 57.2H6.4ZM6.4 50.8H57.6V18.8H29.36L22.96 12.4H6.4V50.8Z" fill="#CFB53B"/>
<path d="M42 35C40.35 35 38.9375 34.4125 37.7625 33.2375C36.5875 32.0625 36 30.65 36 29C36 27.35 36.5875 25.9375 37.7625 24.7625C38.9375 23.5875 40.35 23 42 23C43.65 23 45.0625 23.5875 46.2375 24.7625C47.4125 25.9375 48 27.35 48 29C48 30.65 47.4125 32.0625 46.2375 33.2375C45.0625 34.4125 43.65 35 42 35ZM30 47V42.8C30 41.95 30.2187 41.1687 30.6562 40.4562C31.0938 39.7437 31.675 39.2 32.4 38.825C33.95 38.05 35.525 37.4687 37.125 37.0812C38.725 36.6937 40.35 36.5 42 36.5C43.65 36.5 45.275 36.6937 46.875 37.0812C48.475 37.4687 50.05 38.05 51.6 38.825C52.325 39.2 52.9062 39.7437 53.3438 40.4562C53.7813 41.1687 54 41.95 54 42.8V47H30ZM33 44H51V42.8C51 42.525 50.9313 42.275 50.7938 42.05C50.6563 41.825 50.475 41.65 50.25 41.525C48.9 40.85 47.5375 40.3438 46.1625 40.0063C44.7875 39.6688 43.4 39.5 42 39.5C40.6 39.5 39.2125 39.6688 37.8375 40.0063C36.4625 40.3438 35.1 40.85 33.75 41.525C33.525 41.65 33.3438 41.825 33.2063 42.05C33.0688 42.275 33 42.525 33 42.8V44ZM42 32C42.825 32 43.5313 31.7062 44.1188 31.1187C44.7063 30.5312 45 29.825 45 29C45 28.175 44.7063 27.4688 44.1188 26.8813C43.5313 26.2938 42.825 26 42 26C41.175 26 40.4688 26.2938 39.8813 26.8813C39.2938 27.4688 39 28.175 39 29C39 29.825 39.2938 30.5312 39.8813 31.1187C40.4688 31.7062 41.175 32 42 32Z" fill="#CFB53B"/>
<rect width="64" height="64" fill="white" fill-opacity="0.01"/>
</svg>
