<svg width="64" height="64" viewBox="0 0 64 64" fill="none" xmlns="http://www.w3.org/2000/svg">
<path d="M64 0H0V64H64V0Z" fill="white" fill-opacity="0.01"/>
<path d="M6.4 57.2C4.64 57.2 3.13333 56.5733 1.88 55.32C0.626667 54.0667 0 52.56 0 50.8V12.4C0 10.64 0.626667 9.13333 1.88 7.88C3.13333 6.62667 4.64 6 6.4 6H25.6L32 12.4H57.6C59.36 12.4 60.8667 13.0267 62.12 14.28C63.3733 15.5333 64 17.04 64 18.8V50.8C64 52.56 63.3733 54.0667 62.12 55.32C60.8667 56.5733 59.36 57.2 57.6 57.2H6.4ZM6.4 50.8H57.6V18.8H29.36L22.96 12.4H6.4V50.8Z" fill="#CFB53B"/>
<path d="M37.2406 23L32 27.4812L38.7594 32L44 27.4812L37.2406 23Z" fill="#CFB53B"/>
<path d="M32 27.4812L26.7594 23L20 27.4812L25.2406 32L32 27.4812Z" fill="#CFB53B"/>
<path d="M38.7594 32L44 36.4813L37.2406 40.2406L32 35.7594L38.7594 32Z" fill="#CFB53B"/>
<path d="M32 35.7594L25.2406 32L20 36.4813L26.7594 40.2406L32 35.7594Z" fill="#CFB53B"/>
<path d="M37.0719 42.0547L32 37.7047L26.9281 42.0547L23.7594 40.2828V42.4813L32 46.2406L40.2406 42.4813V40.2828L37.0719 42.0547Z" fill="#CFB53B"/>
</svg>
