<svg width="64" height="64" viewBox="0 0 64 64" fill="none" xmlns="http://www.w3.org/2000/svg">
<path d="M6.4 57.2C4.64 57.2 3.13333 56.5733 1.88 55.32C0.626667 54.0667 0 52.56 0 50.8V12.4C0 10.64 0.626667 9.13333 1.88 7.88C3.13333 6.62667 4.64 6 6.4 6H25.6L32 12.4H57.6C59.36 12.4 60.8667 13.0267 62.12 14.28C63.3733 15.5333 64 17.04 64 18.8V50.8C64 52.56 63.3733 54.0667 62.12 55.32C60.8667 56.5733 59.36 57.2 57.6 57.2H6.4ZM6.4 50.8H57.6V18.8H29.36L22.96 12.4H6.4V50.8Z" fill="#CFB53B"/>
<path d="M23.1818 43.4545C22.5818 43.4545 22.0682 43.2409 21.6409 42.8136C21.2136 42.3864 21 41.8727 21 41.2727V28.1818C21 27.5818 21.2136 27.0682 21.6409 26.6409C22.0682 26.2136 22.5818 26 23.1818 26H40.6364C41.2364 26 41.75 26.2136 42.1773 26.6409C42.6045 27.0682 42.8182 27.5818 42.8182 28.1818V32.5182H41.7273L40.6364 32.5455V30.3636L31.9091 35.8182L23.1818 30.3636V41.2727H36.2727V43.4545H23.1818ZM31.9091 33.6364L40.6364 28.1818H23.1818L31.9091 33.6364ZM39.5455 43.4545C39.2364 43.4545 38.9773 43.35 38.7682 43.1409C38.5591 42.9318 38.4545 42.6727 38.4545 42.3636V39.0909C38.4545 38.7818 38.5591 38.5227 38.7682 38.3136C38.9773 38.1045 39.2364 38 39.5455 38V36.9091C39.5455 36.3091 39.7591 35.7955 40.1864 35.3682C40.6136 34.9409 41.1273 34.7273 41.7273 34.7273C42.3273 34.7273 42.8409 34.9409 43.2682 35.3682C43.6955 35.7955 43.9091 36.3091 43.9091 36.9091V38C44.2182 38 44.4773 38.1045 44.6864 38.3136C44.8955 38.5227 45 38.7818 45 39.0909V42.3636C45 42.6727 44.8955 42.9318 44.6864 43.1409C44.4773 43.35 44.2182 43.4545 43.9091 43.4545H39.5455ZM40.6364 38H42.8182V36.9091C42.8182 36.6 42.7136 36.3409 42.5045 36.1318C42.2955 35.9227 42.0364 35.8182 41.7273 35.8182C41.4182 35.8182 41.1591 35.9227 40.95 36.1318C40.7409 36.3409 40.6364 36.6 40.6364 36.9091V38Z" fill="#CFB53B"/>
</svg>
