<svg width="64" height="64" viewBox="0 0 64 64" fill="none" xmlns="http://www.w3.org/2000/svg">
<path d="M6.4 57.2C4.64 57.2 3.13333 56.5733 1.88 55.32C0.626667 54.0667 0 52.56 0 50.8V12.4C0 10.64 0.626667 9.13333 1.88 7.88C3.13333 6.62667 4.64 6 6.4 6H25.6L32 12.4H57.6C59.36 12.4 60.8667 13.0267 62.12 14.28C63.3733 15.5333 64 17.04 64 18.8V50.8C64 52.56 63.3733 54.0667 62.12 55.32C60.8667 56.5733 59.36 57.2 57.6 57.2H6.4ZM6.4 50.8H57.6V18.8H29.36L22.96 12.4H6.4V50.8Z" fill="#CFB53B"/>
<path d="M30.6667 36.6667V31.1333L28.5333 33.2667L26.6667 31.3333L32 26L37.3333 31.3333L35.4667 33.2667L33.3333 31.1333V36.6667H30.6667ZM22.6667 46C21.9333 46 21.3056 45.7389 20.7833 45.2167C20.2611 44.6944 20 44.0667 20 43.3333V24.6667C20 23.9333 20.2611 23.3056 20.7833 22.7833C21.3056 22.2611 21.9333 22 22.6667 22H41.3333C42.0667 22 42.6944 22.2611 43.2167 22.7833C43.7389 23.3056 44 23.9333 44 24.6667V43.3333C44 44.0667 43.7389 44.6944 43.2167 45.2167C42.6944 45.7389 42.0667 46 41.3333 46H22.6667ZM22.6667 43.3333H41.3333V39.3333H37.3333C36.6667 40.1778 35.8722 40.8333 34.95 41.3C34.0278 41.7667 33.0444 42 32 42C30.9556 42 29.9722 41.7667 29.05 41.3C28.1278 40.8333 27.3333 40.1778 26.6667 39.3333H22.6667V43.3333ZM32 39.3333C32.8444 39.3333 33.6111 39.0889 34.3 38.6C34.9889 38.1111 35.4667 37.4667 35.7333 36.6667H41.3333V24.6667H22.6667V36.6667H28.2667C28.5333 37.4667 29.0111 38.1111 29.7 38.6C30.3889 39.0889 31.1556 39.3333 32 39.3333Z" fill="#CFB53B"/>
</svg>
