<svg width="64" height="64" viewBox="0 0 64 64" fill="none" xmlns="http://www.w3.org/2000/svg">
<path d="M6.4 57.2C4.64 57.2 3.13333 56.5733 1.88 55.32C0.626667 54.0667 0 52.56 0 50.8V12.4C0 10.64 0.626667 9.13333 1.88 7.88C3.13333 6.62667 4.64 6 6.4 6H25.6L32 12.4H57.6C59.36 12.4 60.8667 13.0267 62.12 14.28C63.3733 15.5333 64 17.04 64 18.8V50.8C64 52.56 63.3733 54.0667 62.12 55.32C60.8667 56.5733 59.36 57.2 57.6 57.2H6.4ZM6.4 50.8H57.6V18.8H29.36L22.96 12.4H6.4V50.8Z" fill="#CFB53B"/>
<path d="M22.4 44.2C21.74 44.2 21.175 43.965 20.705 43.495C20.235 43.025 20 42.46 20 41.8V27.4C20 26.74 20.235 26.175 20.705 25.705C21.175 25.235 21.74 25 22.4 25H41.6C42.26 25 42.825 25.235 43.295 25.705C43.765 26.175 44 26.74 44 27.4V41.8C44 42.46 43.765 43.025 43.295 43.495C42.825 43.965 42.26 44.2 41.6 44.2H22.4ZM32 35.8L22.4 29.8V41.8H41.6V29.8L32 35.8ZM32 33.4L41.6 27.4H22.4L32 33.4ZM22.4 29.8V27.4V41.8V29.8Z" fill="#CFB53B"/>
<rect width="64" height="64" fill="white" fill-opacity="0.01"/>
</svg>
