<svg width="64" height="64" viewBox="0 0 64 64" fill="none" xmlns="http://www.w3.org/2000/svg">
<path d="M6.4 55.2C4.64 55.2 3.13333 54.5733 1.88 53.32C0.626667 52.0667 0 50.56 0 48.8V10.4C0 8.64 0.626667 7.13333 1.88 5.88C3.13333 4.62667 4.64 4 6.4 4H25.6L32 10.4H57.6C59.36 10.4 60.8667 11.0267 62.12 12.28C63.3733 13.5333 64 15.04 64 16.8V48.8C64 50.56 63.3733 52.0667 62.12 53.32C60.8667 54.5733 59.36 55.2 57.6 55.2H6.4ZM6.4 48.8H57.6V16.8H29.36L22.96 10.4H6.4V48.8Z" fill="#CFB53B"/>
<path d="M22.6667 44C21.9333 44 21.3056 43.7389 20.7833 43.2167C20.2611 42.6944 20 42.0667 20 41.3333V22.6667C20 21.9333 20.2611 21.3056 20.7833 20.7833C21.3056 20.2611 21.9333 20 22.6667 20H41.3333C42.0667 20 42.6944 20.2611 43.2167 20.7833C43.7389 21.3056 44 21.9333 44 22.6667V41.3333C44 42.0667 43.7389 42.6944 43.2167 43.2167C42.6944 43.7389 42.0667 44 41.3333 44H22.6667ZM22.6667 41.3333H41.3333V37.3333H37.3333C36.6667 38.1778 35.8722 38.8333 34.95 39.3C34.0278 39.7667 33.0444 40 32 40C30.9556 40 29.9722 39.7667 29.05 39.3C28.1278 38.8333 27.3333 38.1778 26.6667 37.3333H22.6667V41.3333ZM32 37.3333C32.8444 37.3333 33.6111 37.0889 34.3 36.6C34.9889 36.1111 35.4667 35.4667 35.7333 34.6667H41.3333V22.6667H22.6667V34.6667H28.2667C28.5333 35.4667 29.0111 36.1111 29.7 36.6C30.3889 37.0889 31.1556 37.3333 32 37.3333ZM32 34.6667L26.6667 29.3333L28.5333 27.4L30.6667 29.5333V24H33.3333V29.5333L35.4667 27.4L37.3333 29.3333L32 34.6667Z" fill="#CFB53B"/>
<rect width="64" height="64" fill="white" fill-opacity="0.01"/>
</svg>
