<svg width="64" height="64" viewBox="0 0 64 64" fill="none" xmlns="http://www.w3.org/2000/svg">
<path d="M6.4 57.2C4.64 57.2 3.13333 56.5733 1.88 55.32C0.626667 54.0667 0 52.56 0 50.8V12.4C0 10.64 0.626667 9.13333 1.88 7.88C3.13333 6.62667 4.64 6 6.4 6H25.6L32 12.4H57.6C59.36 12.4 60.8667 13.0267 62.12 14.28C63.3733 15.5333 64 17.04 64 18.8V50.8C64 52.56 63.3733 54.0667 62.12 55.32C60.8667 56.5733 59.36 57.2 57.6 57.2H6.4ZM6.4 50.8H57.6V18.8H29.36L22.96 12.4H6.4V50.8Z" fill="#CFB53B"/>
<path d="M23.48 39.04C22.34 37.84 21.475 36.51 20.885 35.05C20.295 33.59 20 32.08 20 30.52C20 28.96 20.295 27.45 20.885 25.99C21.475 24.53 22.34 23.2 23.48 22L24.92 23.44C23.96 24.4 23.24 25.505 22.76 26.755C22.28 28.005 22.04 29.26 22.04 30.52C22.04 31.78 22.28 33.035 22.76 34.285C23.24 35.535 23.96 36.64 24.92 37.6L23.48 39.04ZM26.36 36.16C25.58 35.38 24.985 34.5 24.575 33.52C24.165 32.54 23.96 31.54 23.96 30.52C23.96 29.5 24.165 28.5 24.575 27.52C24.985 26.54 25.58 25.66 26.36 24.88L27.8 26.32C27.2 26.86 26.75 27.5 26.45 28.24C26.15 28.98 26 29.74 26 30.52C26 31.24 26.15 31.97 26.45 32.71C26.75 33.45 27.2 34.12 27.8 34.72L26.36 36.16ZM26 44.92L30.05 32.77C29.73 32.49 29.475 32.16 29.285 31.78C29.095 31.4 29 30.98 29 30.52C29 29.68 29.29 28.97 29.87 28.39C30.45 27.81 31.16 27.52 32 27.52C32.84 27.52 33.55 27.81 34.13 28.39C34.71 28.97 35 29.68 35 30.52C35 30.98 34.905 31.4 34.715 31.78C34.525 32.16 34.27 32.49 33.95 32.77L38 44.92H35.6L34.82 42.52H29.21L28.4 44.92H26ZM29.99 40.12H34.01L32 34.12L29.99 40.12ZM37.64 36.16L36.2 34.72C36.8 34.18 37.25 33.54 37.55 32.8C37.85 32.06 38 31.3 38 30.52C38 29.8 37.85 29.07 37.55 28.33C37.25 27.59 36.8 26.92 36.2 26.32L37.64 24.88C38.42 25.66 39 26.54 39.38 27.52C39.76 28.5 39.98 29.5 40.04 30.52C40.04 31.54 39.835 32.54 39.425 33.52C39.015 34.5 38.42 35.38 37.64 36.16ZM40.52 39.04L39.08 37.6C40.04 36.64 40.76 35.535 41.24 34.285C41.72 33.035 41.96 31.78 41.96 30.52C41.96 29.26 41.72 28.005 41.24 26.755C40.76 25.505 40.04 24.4 39.08 23.44L40.52 22C41.66 23.2 42.525 24.53 43.115 25.99C43.705 27.45 44 28.96 44 30.52C44 32.08 43.72 33.59 43.16 35.05C42.6 36.51 41.72 37.84 40.52 39.04Z" fill="#CFB53B"/>
</svg>
