<svg width="64" height="64" viewBox="0 0 64 64" fill="none" xmlns="http://www.w3.org/2000/svg">
<path d="M39.619 63.9048C37.9429 63.9048 36.5079 63.3079 35.3143 62.1143C34.1206 60.9206 33.5238 59.4857 33.5238 57.8095C33.5238 56.6413 33.8032 55.6 34.3619 54.6857C34.9206 53.7714 35.6571 53.0349 36.5714 52.4762V35.6381C35.6571 35.0794 34.9206 34.3556 34.3619 33.4667C33.8032 32.5778 33.5238 31.5492 33.5238 30.381C33.5238 28.7048 34.1206 27.2698 35.3143 26.0762C36.5079 24.8825 37.9429 24.2857 39.619 24.2857C41.2952 24.2857 42.7302 24.8825 43.9238 26.0762C45.1175 27.2698 45.7143 28.7048 45.7143 30.381C45.7143 31.5492 45.4349 32.5778 44.8762 33.4667C44.3175 34.3556 43.581 35.0794 42.6667 35.6381V44.4L54.8571 40.3619V35.6381C53.9429 35.0794 53.2063 34.3556 52.6476 33.4667C52.0889 32.5778 51.8095 31.5492 51.8095 30.381C51.8095 28.7048 52.4063 27.2698 53.6 26.0762C54.7937 24.8825 56.2286 24.2857 57.9048 24.2857C59.581 24.2857 61.0159 24.8825 62.2095 26.0762C63.4032 27.2698 64 28.7048 64 30.381C64 31.5492 63.7206 32.5778 63.1619 33.4667C62.6032 34.3556 61.8667 35.0794 60.9524 35.6381V44.7048L42.6667 50.8V52.4762C43.581 53.0349 44.3175 53.7714 44.8762 54.6857C45.4349 55.6 45.7143 56.6413 45.7143 57.8095C45.7143 59.4857 45.1175 60.9206 43.9238 62.1143C42.7302 63.3079 41.2952 63.9048 39.619 63.9048ZM6.09524 54.7619C4.41905 54.7619 2.98413 54.1651 1.79048 52.9714C0.596825 51.7778 0 50.3429 0 48.6667V12.0952C0 10.419 0.596825 8.98413 1.79048 7.79048C2.98413 6.59683 4.41905 6 6.09524 6H24.381L30.4762 12.0952H54.8571C56.5333 12.0952 57.9683 12.6921 59.1619 13.8857C60.3556 15.0794 60.9524 16.5143 60.9524 18.1905H27.9619L21.8667 12.0952H6.09524V48.6667H27.4286V54.7619H6.09524Z" fill="#CFB53B"/>
</svg>
