<svg width="64" height="64" viewBox="0 0 64 64" fill="none" xmlns="http://www.w3.org/2000/svg">
<path d="M6.4 54.2C4.64 54.2 3.13333 53.5733 1.88 52.32C0.626667 51.0667 0 49.56 0 47.8V9.4C0 7.64 0.626667 6.13333 1.88 4.88C3.13333 3.62667 4.64 3 6.4 3H25.6L32 9.4H57.6C59.36 9.4 60.8667 10.0267 62.12 11.28C63.3733 12.5333 64 14.04 64 15.8V47.8C64 49.56 63.3733 51.0667 62.12 52.32C60.8667 53.5733 59.36 54.2 57.6 54.2H6.4ZM6.4 47.8H57.6V15.8H29.36L22.96 9.4H6.4V47.8Z" fill="#CFB53B"/>
<path d="M27.2 42.6V40.2H29.6V37.8H22.4C21.74 37.8 21.175 37.565 20.705 37.095C20.235 36.625 20 36.06 20 35.4V23.4C20 22.74 20.235 22.175 20.705 21.705C21.175 21.235 21.74 21 22.4 21H41.6C42.26 21 42.825 21.235 43.295 21.705C43.765 22.175 44 22.74 44 23.4V35.4C44 36.06 43.765 36.625 43.295 37.095C42.825 37.565 42.26 37.8 41.6 37.8H34.4V40.2H36.8V42.6H27.2ZM22.4 35.4H41.6V23.4H22.4V35.4Z" fill="#CFB53B"/>
<rect width="64" height="64" fill="white" fill-opacity="0.01"/>
</svg>
