<svg width="64" height="64" viewBox="0 0 64 64" fill="none" xmlns="http://www.w3.org/2000/svg">
<path d="M6.4 55.2C4.64 55.2 3.13333 54.5733 1.88 53.32C0.626667 52.0667 0 50.56 0 48.8V10.4C0 8.64 0.626667 7.13333 1.88 5.88C3.13333 4.62667 4.64 4 6.4 4H25.6L32 10.4H57.6C59.36 10.4 60.8667 11.0267 62.12 12.28C63.3733 13.5333 64 15.04 64 16.8V48.8C64 50.56 63.3733 52.0667 62.12 53.32C60.8667 54.5733 59.36 55.2 57.6 55.2H6.4ZM6.4 48.8H57.6V16.8H29.36L22.96 10.4H6.4V48.8Z" fill="#CFB53B"/>
<path d="M32 33C30.35 33 28.9375 32.4125 27.7625 31.2375C26.5875 30.0625 26 28.65 26 27C26 25.35 26.5875 23.9375 27.7625 22.7625C28.9375 21.5875 30.35 21 32 21C33.65 21 35.0625 21.5875 36.2375 22.7625C37.4125 23.9375 38 25.35 38 27C38 28.65 37.4125 30.0625 36.2375 31.2375C35.0625 32.4125 33.65 33 32 33ZM20 45V40.8C20 39.95 20.2187 39.1687 20.6562 38.4562C21.0938 37.7437 21.675 37.2 22.4 36.825C23.95 36.05 25.525 35.4688 27.125 35.0812C28.725 34.6937 30.35 34.5 32 34.5C33.65 34.5 35.275 34.6937 36.875 35.0812C38.475 35.4688 40.05 36.05 41.6 36.825C42.325 37.2 42.9062 37.7437 43.3438 38.4562C43.7812 39.1687 44 39.95 44 40.8V45H20ZM23 42H41V40.8C41 40.525 40.9312 40.275 40.7938 40.05C40.6562 39.825 40.475 39.65 40.25 39.525C38.9 38.85 37.5375 38.3438 36.1625 38.0063C34.7875 37.6688 33.4 37.5 32 37.5C30.6 37.5 29.2125 37.6688 27.8375 38.0063C26.4625 38.3438 25.1 38.85 23.75 39.525C23.525 39.65 23.3438 39.825 23.2063 40.05C23.0688 40.275 23 40.525 23 40.8V42ZM32 30C32.825 30 33.5313 29.7063 34.1188 29.1187C34.7063 28.5312 35 27.825 35 27C35 26.175 34.7063 25.4688 34.1188 24.8813C33.5313 24.2938 32.825 24 32 24C31.175 24 30.4688 24.2938 29.8813 24.8813C29.2937 25.4688 29 26.175 29 27C29 27.825 29.2937 28.5312 29.8813 29.1187C30.4688 29.7063 31.175 30 32 30Z" fill="#CFB53B"/>
<rect width="64" height="64" fill="white" fill-opacity="0.01"/>
</svg>
