<svg width="32" height="32" viewBox="0 0 64 64" fill="none" xmlns="http://www.w3.org/2000/svg">
<path d="M6.4 57.2C4.64 57.2 3.13333 56.5733 1.88 55.32C0.626667 54.0667 0 52.56 0 50.8V12.4C0 10.64 0.626667 9.13333 1.88 7.88C3.13333 6.62667 4.64 6 6.4 6H25.6L32 12.4H57.6C59.36 12.4 60.8667 13.0267 62.12 14.28C63.3733 15.5333 64 17.04 64 18.8V50.8C64 52.56 63.3733 54.0667 62.12 55.32C60.8667 56.5733 59.36 57.2 57.6 57.2H6.4ZM6.4 50.8H57.6V18.8H29.36L22.96 12.4H6.4V50.8Z" fill="#CFB53B"/>
<path d="M29.2 42.2C28.54 42.2 27.975 41.965 27.505 41.495C27.035 41.025 26.8 40.46 26.8 39.8V25.4C26.8 24.74 27.035 24.175 27.505 23.705C27.975 23.235 28.54 23 29.2 23H40C40.66 23 41.225 23.235 41.695 23.705C42.165 24.175 42.4 24.74 42.4 25.4V39.8C42.4 40.46 42.165 41.025 41.695 41.495C41.225 41.965 40.66 42.2 40 42.2H29.2ZM29.2 39.8H40V25.4H29.2V39.8ZM24.4 47C23.74 47 23.175 46.765 22.705 46.295C22.235 45.825 22 45.26 22 44.6V27.8H24.4V44.6H37.6V47H24.4Z" fill="#CFB53B"/>
<path d="M30 37.5H36.3V35.5H30V37.5ZM30 33.5H39V31.5H30V33.5ZM30 29.5H39V27.5H30V29.5Z" fill="#CFB53B"/>
</svg>
