<svg width="32" height="32" viewBox="0 0 64 64" fill="none" xmlns="http://www.w3.org/2000/svg">
<path d="M6.4 57.2C4.64 57.2 3.13333 56.5733 1.88 55.32C0.626667 54.0667 0 52.56 0 50.8V12.4C0 10.64 0.626667 9.13333 1.88 7.88C3.13333 6.62667 4.64 6 6.4 6H25.6L32 12.4H57.6C59.36 12.4 60.8667 13.0267 62.12 14.28C63.3733 15.5333 64 17.04 64 18.8V50.8C64 52.56 63.3733 54.0667 62.12 55.32C60.8667 56.5733 59.36 57.2 57.6 57.2H6.4ZM6.4 50.8H57.6V18.8H29.36L22.96 12.4H6.4V50.8Z" fill="#CFB53B"/>
<path d="M22.5737 46.4504C21.866 46.4504 21.2601 46.1984 20.756 45.6944C20.252 45.1903 20 44.5845 20 43.8767V38.7292C20 38.0214 20.252 37.4156 20.756 36.9115C21.2601 36.4075 21.866 36.1555 22.5737 36.1555H35.4424V31.008H38.0161V36.1555H40.5898C41.2976 36.1555 41.9035 36.4075 42.4075 36.9115C42.9115 37.4156 43.1635 38.0214 43.1635 38.7292V43.8767C43.1635 44.5845 42.9115 45.1903 42.4075 45.6944C41.9035 46.1984 41.2976 46.4504 40.5898 46.4504H22.5737ZM40.5898 43.8767V38.7292H22.5737V43.8767H40.5898ZM26.4343 41.3029C26.4343 40.9383 26.311 40.6327 26.0643 40.3861C25.8177 40.1394 25.5121 40.0161 25.1475 40.0161C24.7828 40.0161 24.4772 40.1394 24.2306 40.3861C23.9839 40.6327 23.8606 40.9383 23.8606 41.3029C23.8606 41.6676 23.9839 41.9732 24.2306 42.2198C24.4772 42.4665 24.7828 42.5898 25.1475 42.5898C25.5121 42.5898 25.8177 42.4665 26.0643 42.2198C26.311 41.9732 26.4343 41.6676 26.4343 41.3029ZM30.9383 41.3029C30.9383 40.9383 30.815 40.6327 30.5684 40.3861C30.3217 40.1394 30.0161 40.0161 29.6515 40.0161C29.2869 40.0161 28.9812 40.1394 28.7346 40.3861C28.4879 40.6327 28.3646 40.9383 28.3646 41.3029C28.3646 41.6676 28.4879 41.9732 28.7346 42.2198C28.9812 42.4665 29.2869 42.5898 29.6515 42.5898C30.0161 42.5898 30.3217 42.4665 30.5684 42.2198C30.815 41.9732 30.9383 41.6676 30.9383 41.3029ZM34.1555 42.5898C34.5201 42.5898 34.8257 42.4665 35.0724 42.2198C35.319 41.9732 35.4424 41.6676 35.4424 41.3029C35.4424 40.9383 35.319 40.6327 35.0724 40.3861C34.8257 40.1394 34.5201 40.0161 34.1555 40.0161C33.7909 40.0161 33.4853 40.1394 33.2386 40.3861C32.992 40.6327 32.8686 40.9383 32.8686 41.3029C32.8686 41.6676 32.992 41.9732 33.2386 42.2198C33.4853 42.4665 33.7909 42.5898 34.1555 42.5898ZM34.4772 30.0429L32.6113 28.1769C33.1689 27.6622 33.7909 27.2547 34.4772 26.9544C35.1635 26.6542 35.9142 26.504 36.7292 26.504C37.5442 26.504 38.2949 26.6542 38.9812 26.9544C39.6676 27.2547 40.2895 27.6622 40.8472 28.1769L38.9812 30.0429C38.681 29.7426 38.3432 29.5067 37.9678 29.3351C37.5925 29.1635 37.1796 29.0777 36.7292 29.0777C36.2788 29.0777 35.866 29.1635 35.4906 29.3351C35.1153 29.5067 34.7775 29.7426 34.4772 30.0429ZM31.2601 26.8257L29.4584 25.0241C30.4021 24.0804 31.496 23.3405 32.7399 22.8043C33.9839 22.2681 35.3137 22 36.7292 22C38.1448 22 39.4745 22.2681 40.7185 22.8043C41.9625 23.3405 43.0563 24.0804 44 25.0241L42.1984 26.8257C41.4906 26.118 40.6702 25.5657 39.7373 25.1689C38.8043 24.7721 37.8016 24.5737 36.7292 24.5737C35.6568 24.5737 34.6542 24.7721 33.7212 25.1689C32.7882 25.5657 31.9678 26.118 31.2601 26.8257Z" fill="#CFB53B"/>
</svg>
