<svg width="32" height="32" viewBox="0 0 64 64" fill="none" xmlns="http://www.w3.org/2000/svg">
<path d="M6.4 57.2C4.64 57.2 3.13333 56.5733 1.88 55.32C0.626667 54.0667 0 52.56 0 50.8V12.4C0 10.64 0.626667 9.13333 1.88 7.88C3.13333 6.62667 4.64 6 6.4 6H25.6L32 12.4H57.6C59.36 12.4 60.8667 13.0267 62.12 14.28C63.3733 15.5333 64 17.04 64 18.8V50.8C64 52.56 63.3733 54.0667 62.12 55.32C60.8667 56.5733 59.36 57.2 57.6 57.2H6.4ZM6.4 50.8H57.6V18.8H29.36L22.96 12.4H6.4V50.8Z" fill="#CFB53B"/>
<path d="M26 43.4545C24.3455 43.4545 22.9318 42.8818 21.7591 41.7364C20.5864 40.5909 20 39.1909 20 37.5364C20 36.1182 20.4273 34.8545 21.2818 33.7455C22.1364 32.6364 23.2545 31.9273 24.6364 31.6182C25.0909 29.9455 26 28.5909 27.3636 27.5545C28.7273 26.5182 30.2727 26 32 26C34.1273 26 35.9318 26.7409 37.4136 28.2227C38.8955 29.7045 39.6364 31.5091 39.6364 33.6364C40.8909 33.7818 41.9318 34.3227 42.7591 35.2591C43.5864 36.1955 44 37.2909 44 38.5455C44 39.9091 43.5227 41.0682 42.5682 42.0227C41.6136 42.9773 40.4545 43.4545 39.0909 43.4545H26ZM26 41.2727H39.0909C39.8545 41.2727 40.5 41.0091 41.0273 40.4818C41.5545 39.9545 41.8182 39.3091 41.8182 38.5455C41.8182 37.7818 41.5545 37.1364 41.0273 36.6091C40.5 36.0818 39.8545 35.8182 39.0909 35.8182H37.4545V33.6364C37.4545 32.1273 36.9227 30.8409 35.8591 29.7773C34.7955 28.7136 33.5091 28.1818 32 28.1818C30.4909 28.1818 29.2045 28.7136 28.1409 29.7773C27.0773 30.8409 26.5455 32.1273 26.5455 33.6364H26C24.9455 33.6364 24.0455 34.0091 23.3 34.7545C22.5545 35.5 22.1818 36.4 22.1818 37.4545C22.1818 38.5091 22.5545 39.4091 23.3 40.1545C24.0455 40.9 24.9455 41.2727 26 41.2727Z" fill="#CFB53B"/>
</svg>
