<svg width="32" height="32" viewBox="0 0 64 64" fill="none" xmlns="http://www.w3.org/2000/svg">
<path d="M6.4 57.2C4.64 57.2 3.13333 56.5733 1.88 55.32C0.626667 54.0667 0 52.56 0 50.8V12.4C0 10.64 0.626667 9.13333 1.88 7.88C3.13333 6.62667 4.64 6 6.4 6H25.6L32 12.4H57.6C59.36 12.4 60.8667 13.0267 62.12 14.28C63.3733 15.5333 64 17.04 64 18.8V50.8C64 52.56 63.3733 54.0667 62.12 55.32C60.8667 56.5733 59.36 57.2 57.6 57.2H6.4ZM6.4 50.8H57.6V18.8H29.36L22.96 12.4H6.4V50.8Z" fill="#CFB53B"/>
<path d="M20 32.66C20 30.66 20.445 28.825 21.335 27.155C22.225 25.485 23.42 24.1 24.92 23L26.33 24.92C25.13 25.8 24.175 26.91 23.465 28.25C22.755 29.59 22.4 31.06 22.4 32.66H20ZM41.6 32.66C41.6 31.06 41.245 29.59 40.535 28.25C39.825 26.91 38.87 25.8 37.67 24.92L39.08 23C40.58 24.1 41.775 25.485 42.665 27.155C43.555 28.825 44 30.66 44 32.66H41.6ZM22.4 43.46V41.06H24.8V32.66C24.8 31 25.3 29.525 26.3 28.235C27.3 26.945 28.6 26.1 30.2 25.7V24.86C30.2 24.36 30.375 23.935 30.725 23.585C31.075 23.235 31.5 23.06 32 23.06C32.5 23.06 32.925 23.235 33.275 23.585C33.625 23.935 33.8 24.36 33.8 24.86V25.7C35.4 26.1 36.7 26.945 37.7 28.235C38.7 29.525 39.2 31 39.2 32.66V41.06H41.6V43.46H22.4ZM32 47.06C31.34 47.06 30.775 46.825 30.305 46.355C29.835 45.885 29.6 45.32 29.6 44.66H34.4C34.4 45.32 34.165 45.885 33.695 46.355C33.225 46.825 32.66 47.06 32 47.06ZM27.2 41.06H36.8V32.66C36.8 31.34 36.33 30.21 35.39 29.27C34.45 28.33 33.32 27.86 32 27.86C30.68 27.86 29.55 28.33 28.61 29.27C27.67 30.21 27.2 31.34 27.2 32.66V41.06Z" fill="#CFB53B"/>
</svg>
