<svg width="32" height="32" viewBox="0 0 64 64" fill="none" xmlns="http://www.w3.org/2000/svg">
<path d="M5.95349 55.6279C4.31628 55.6279 2.91473 55.045 1.74884 53.8791C0.582946 52.7132 0 51.3116 0 49.6744V13.9535C0 12.3163 0.582946 10.9147 1.74884 9.74884C2.91473 8.58295 4.31628 8 5.95349 8H23.814L29.7674 13.9535H53.5814C55.2186 13.9535 56.6202 14.5364 57.786 15.7023C58.9519 16.8682 59.5349 18.2698 59.5349 19.907H27.3116L21.3581 13.9535H5.95349V49.6744L13.0977 25.8605H64L56.3349 51.386C55.938 52.676 55.2062 53.7054 54.1395 54.4744C53.0729 55.2434 51.8946 55.6279 50.6047 55.6279H5.95349ZM12.2047 49.6744H50.6047L55.9628 31.814H17.5628L12.2047 49.6744Z" fill="#CFB53B"/>
</svg>
