<svg width="32" height="32" viewBox="0 0 64 64" fill="none" xmlns="http://www.w3.org/2000/svg">
<path d="M6.4 57.2C4.64 57.2 3.13333 56.5733 1.88 55.32C0.626667 54.0667 0 52.56 0 50.8V12.4C0 10.64 0.626667 9.13333 1.88 7.88C3.13333 6.62667 4.64 6 6.4 6H25.6L32 12.4H57.6C59.36 12.4 60.8667 13.0267 62.12 14.28C63.3733 15.5333 64 17.04 64 18.8V50.8C64 52.56 63.3733 54.0667 62.12 55.32C60.8667 56.5733 59.36 57.2 57.6 57.2H6.4ZM6.4 50.8H57.6V18.8H29.36L22.96 12.4H6.4V50.8Z" fill="#CFB53B"/>
<path d="M22.4 45.6C21.74 45.6 21.175 45.365 20.705 44.895C20.235 44.425 20 43.86 20 43.2V26.4C20 25.74 20.235 25.175 20.705 24.705C21.175 24.235 21.74 24 22.4 24H39.2C39.86 24 40.425 24.235 40.895 24.705C41.365 25.175 41.6 25.74 41.6 26.4V28.8H44V31.2H41.6V33.6H44V36H41.6V38.4H44V40.8H41.6V43.2C41.6 43.86 41.365 44.425 40.895 44.895C40.425 45.365 39.86 45.6 39.2 45.6H22.4ZM22.4 43.2H39.2V26.4H22.4V43.2ZM24.8 40.8H30.8V36H24.8V40.8ZM32 32.4H36.8V28.8H32V32.4ZM24.8 34.8H30.8V28.8H24.8V34.8ZM32 40.8H36.8V33.6H32V40.8Z" fill="#CFB53B"/>
</svg>
