<svg width="32" height="32" viewBox="0 0 64 64" fill="none" xmlns="http://www.w3.org/2000/svg">
<path d="M6.4 57.2C4.64 57.2 3.13333 56.5733 1.88 55.32C0.626667 54.0667 0 52.56 0 50.8V12.4C0 10.64 0.626667 9.13333 1.88 7.88C3.13333 6.62667 4.64 6 6.4 6H25.6L32 12.4H57.6C59.36 12.4 60.8667 13.0267 62.12 14.28C63.3733 15.5333 64 17.04 64 18.8V50.8C64 52.56 63.3733 54.0667 62.12 55.32C60.8667 56.5733 59.36 57.2 57.6 57.2H6.4ZM6.4 50.8H57.6V18.8H29.36L22.96 12.4H6.4V50.8Z" fill="#CFB53B"/>
<path d="M24.0228 43.5143C22.9282 43.5143 21.9932 43.122 21.2178 42.3375C20.4424 41.553 20.0365 40.6043 20 39.4914C20 39.3273 20.0091 39.1631 20.0274 38.9989C20.0456 38.8347 20.073 38.6705 20.1095 38.5063L22.4082 29.3113C22.6636 28.3261 23.1836 27.5279 23.9681 26.9168C24.7526 26.3056 25.6465 26 26.6499 26H37.3227C38.3261 26 39.2201 26.3056 40.0046 26.9168C40.7891 27.5279 41.309 28.3261 41.5644 29.3113L43.8632 38.5063C43.8997 38.6705 43.9316 38.8392 43.959 39.0125C43.9863 39.1859 44 39.3546 44 39.5188C44 40.6317 43.6032 41.5758 42.8096 42.3512C42.016 43.1266 41.0627 43.5143 39.9498 43.5143C39.1836 43.5143 38.4721 43.3136 37.8153 42.9122C37.1585 42.5108 36.6659 41.9635 36.3375 41.2702L35.5713 39.683C35.48 39.5006 35.3432 39.3637 35.1608 39.2725C34.9783 39.1813 34.7868 39.1357 34.5861 39.1357H29.3865C29.1859 39.1357 28.9943 39.1813 28.8119 39.2725C28.6294 39.3637 28.4926 39.5006 28.4014 39.683L27.6351 41.2702C27.3067 41.9635 26.8141 42.5108 26.1574 42.9122C25.5006 43.3136 24.7891 43.5143 24.0228 43.5143ZM24.1049 41.325C24.4515 41.325 24.7662 41.2338 25.049 41.0513C25.3318 40.8689 25.5462 40.6226 25.6921 40.3124L26.4584 38.7526C26.732 38.187 27.1334 37.7446 27.6625 37.4253C28.1916 37.106 28.7662 36.9464 29.3865 36.9464H34.5861C35.2064 36.9464 35.7811 37.1106 36.3101 37.439C36.8392 37.7674 37.2497 38.2052 37.5416 38.7526L38.3079 40.3124C38.4538 40.6226 38.6682 40.8689 38.951 41.0513C39.2338 41.2338 39.5485 41.325 39.8951 41.325C40.4059 41.325 40.8438 41.1562 41.2087 40.8187C41.5735 40.4812 41.7651 40.057 41.7834 39.5462C41.7834 39.5644 41.7651 39.3911 41.7286 39.0262L39.4299 29.8586C39.3022 29.366 39.0468 28.9647 38.6636 28.6545C38.2805 28.3444 37.8335 28.1893 37.3227 28.1893H26.6499C26.1391 28.1893 25.6876 28.3444 25.2953 28.6545C24.9031 28.9647 24.6522 29.366 24.5428 29.8586L22.244 39.0262C22.2075 39.1357 22.1893 39.2999 22.1893 39.5188C22.1893 40.0296 22.3763 40.4584 22.7503 40.805C23.1243 41.1517 23.5758 41.325 24.1049 41.325ZM33.6283 33.6625C33.9384 33.6625 34.1984 33.5576 34.4082 33.3478C34.618 33.138 34.7229 32.878 34.7229 32.5678C34.7229 32.2577 34.618 31.9977 34.4082 31.7879C34.1984 31.5781 33.9384 31.4732 33.6283 31.4732C33.3181 31.4732 33.0582 31.5781 32.8483 31.7879C32.6385 31.9977 32.5336 32.2577 32.5336 32.5678C32.5336 32.878 32.6385 33.138 32.8483 33.3478C33.0582 33.5576 33.3181 33.6625 33.6283 33.6625ZM35.8176 31.4732C36.1277 31.4732 36.3877 31.3683 36.5975 31.1585C36.8073 30.9487 36.9122 30.6887 36.9122 30.3786C36.9122 30.0684 36.8073 29.8084 36.5975 29.5986C36.3877 29.3888 36.1277 29.2839 35.8176 29.2839C35.5074 29.2839 35.2474 29.3888 35.0376 29.5986C34.8278 29.8084 34.7229 30.0684 34.7229 30.3786C34.7229 30.6887 34.8278 30.9487 35.0376 31.1585C35.2474 31.3683 35.5074 31.4732 35.8176 31.4732ZM35.8176 35.8518C36.1277 35.8518 36.3877 35.7469 36.5975 35.5371C36.8073 35.3273 36.9122 35.0673 36.9122 34.7571C36.9122 34.447 36.8073 34.187 36.5975 33.9772C36.3877 33.7674 36.1277 33.6625 35.8176 33.6625C35.5074 33.6625 35.2474 33.7674 35.0376 33.9772C34.8278 34.187 34.7229 34.447 34.7229 34.7571C34.7229 35.0673 34.8278 35.3273 35.0376 35.5371C35.2474 35.7469 35.5074 35.8518 35.8176 35.8518ZM38.0068 33.6625C38.317 33.6625 38.577 33.5576 38.7868 33.3478C38.9966 33.138 39.1015 32.878 39.1015 32.5678C39.1015 32.2577 38.9966 31.9977 38.7868 31.7879C38.577 31.5781 38.317 31.4732 38.0068 31.4732C37.6967 31.4732 37.4367 31.5781 37.2269 31.7879C37.0171 31.9977 36.9122 32.2577 36.9122 32.5678C36.9122 32.878 37.0171 33.138 37.2269 33.3478C37.4367 33.5576 37.6967 33.6625 38.0068 33.6625ZM28.1551 35.3044C28.3922 35.3044 28.5884 35.2269 28.7434 35.0718C28.8985 34.9168 28.9761 34.7206 28.9761 34.4835V33.3888H30.0707C30.3079 33.3888 30.504 33.3113 30.6591 33.1562C30.8141 33.0011 30.8917 32.805 30.8917 32.5678C30.8917 32.3307 30.8141 32.1345 30.6591 31.9795C30.504 31.8244 30.3079 31.7469 30.0707 31.7469H28.9761V30.6522C28.9761 30.4151 28.8985 30.2189 28.7434 30.0639C28.5884 29.9088 28.3922 29.8312 28.1551 29.8312C27.9179 29.8312 27.7218 29.9088 27.5667 30.0639C27.4116 30.2189 27.3341 30.4151 27.3341 30.6522V31.7469H26.2395C26.0023 31.7469 25.8062 31.8244 25.6511 31.9795C25.496 32.1345 25.4185 32.3307 25.4185 32.5678C25.4185 32.805 25.496 33.0011 25.6511 33.1562C25.8062 33.3113 26.0023 33.3888 26.2395 33.3888H27.3341V34.4835C27.3341 34.7206 27.4116 34.9168 27.5667 35.0718C27.7218 35.2269 27.9179 35.3044 28.1551 35.3044Z" fill="#CFB53B"/>
</svg>
