<svg width="32" height="32" viewBox="0 0 64 64" fill="none" xmlns="http://www.w3.org/2000/svg">
<path d="M6.4 57.2C4.64 57.2 3.13333 56.5733 1.88 55.32C0.626667 54.0667 0 52.56 0 50.8V12.4C0 10.64 0.626667 9.13333 1.88 7.88C3.13333 6.62667 4.64 6 6.4 6H25.6L32 12.4H57.6C59.36 12.4 60.8667 13.0267 62.12 14.28C63.3733 15.5333 64 17.04 64 18.8V50.8C64 52.56 63.3733 54.0667 62.12 55.32C60.8667 56.5733 59.36 57.2 57.6 57.2H6.4ZM6.4 50.8H57.6V18.8H29.36L22.96 12.4H6.4V50.8Z" fill="#CFB53B"/>
<path d="M32 23C25.374 23 20 28.373 20 35C20 40.302 23.438 44.8 28.207 46.387C28.806 46.498 29 46.126 29 45.81V43.576C25.662 44.302 24.967 42.16 24.967 42.16C24.421 40.773 23.634 40.404 23.634 40.404C22.545 39.659 23.717 39.675 23.717 39.675C24.922 39.759 25.556 40.912 25.556 40.912C26.626 42.746 28.363 42.216 29.048 41.909C29.155 41.134 29.466 40.604 29.81 40.305C27.145 40 24.343 38.971 24.343 34.374C24.343 33.063 24.812 31.993 25.579 31.153C25.455 30.85 25.044 29.629 25.696 27.977C25.696 27.977 26.704 27.655 28.997 29.207C29.954 28.941 30.98 28.808 32 28.803C33.02 28.808 34.047 28.941 35.006 29.207C37.297 27.655 38.303 27.977 38.303 27.977C38.956 29.63 38.545 30.851 38.421 31.153C39.191 31.993 39.656 33.064 39.656 34.374C39.656 38.983 36.849 39.998 34.177 40.295C34.607 40.667 35 41.397 35 42.517V45.81C35 46.129 35.192 46.504 35.801 46.386C40.566 44.797 44 40.3 44 35C44 28.373 38.627 23 32 23Z" fill="#CFB53B"/>
</svg>
