<svg width="32" height="32" viewBox="0 0 64 64" fill="none" xmlns="http://www.w3.org/2000/svg">
<path d="M6.4 57.2C4.64 57.2 3.13333 56.5733 1.88 55.32C0.626667 54.0667 0 52.56 0 50.8V12.4C0 10.64 0.626667 9.13333 1.88 7.88C3.13333 6.62667 4.64 6 6.4 6H25.6L32 12.4H57.6C59.36 12.4 60.8667 13.0267 62.12 14.28C63.3733 15.5333 64 17.04 64 18.8V50.8C64 52.56 63.3733 54.0667 62.12 55.32C60.8667 56.5733 59.36 57.2 57.6 57.2H6.4ZM6.4 50.8H57.6V18.8H29.36L22.96 12.4H6.4V50.8Z" fill="#CFB53B"/>
<path d="M26 26C25.4444 26 24.9722 26.1944 24.5833 26.5833C24.1944 26.9722 24 27.4444 24 28C24 28.5556 24.1944 29.0278 24.5833 29.4167C24.9722 29.8056 25.4444 30 26 30C26.5556 30 27.0278 29.8056 27.4167 29.4167C27.8056 29.0278 28 28.5556 28 28C28 27.4444 27.8056 26.9722 27.4167 26.5833C27.0278 26.1944 26.5556 26 26 26ZM26 39.3333C25.4444 39.3333 24.9722 39.5278 24.5833 39.9167C24.1944 40.3056 24 40.7778 24 41.3333C24 41.8889 24.1944 42.3611 24.5833 42.75C24.9722 43.1389 25.4444 43.3333 26 43.3333C26.5556 43.3333 27.0278 43.1389 27.4167 42.75C27.8056 42.3611 28 41.8889 28 41.3333C28 40.7778 27.8056 40.3056 27.4167 39.9167C27.0278 39.5278 26.5556 39.3333 26 39.3333ZM21.3333 22H42.6667C43.0444 22 43.3611 22.1278 43.6167 22.3833C43.8722 22.6389 44 22.9556 44 23.3333V32.6667C44 33.0444 43.8722 33.3611 43.6167 33.6167C43.3611 33.8722 43.0444 34 42.6667 34H21.3333C20.9556 34 20.6389 33.8722 20.3833 33.6167C20.1278 33.3611 20 33.0444 20 32.6667V23.3333C20 22.9556 20.1278 22.6389 20.3833 22.3833C20.6389 22.1278 20.9556 22 21.3333 22ZM22.6667 24.6667V31.3333H41.3333V24.6667H22.6667ZM21.3333 35.3333H42.6667C43.0444 35.3333 43.3611 35.4611 43.6167 35.7167C43.8722 35.9722 44 36.2889 44 36.6667V46C44 46.3778 43.8722 46.6944 43.6167 46.95C43.3611 47.2056 43.0444 47.3333 42.6667 47.3333H21.3333C20.9556 47.3333 20.6389 47.2056 20.3833 46.95C20.1278 46.6944 20 46.3778 20 46V36.6667C20 36.2889 20.1278 35.9722 20.3833 35.7167C20.6389 35.4611 20.9556 35.3333 21.3333 35.3333ZM22.6667 38V44.6667H41.3333V38H22.6667Z" fill="#CFB53B"/>
</svg>
