<svg width="32" height="32" viewBox="0 0 64 64" fill="none" xmlns="http://www.w3.org/2000/svg">
<path d="M6.4 57.2C4.64 57.2 3.13333 56.5733 1.88 55.32C0.626667 54.0667 0 52.56 0 50.8V12.4C0 10.64 0.626667 9.13333 1.88 7.88C3.13333 6.62667 4.64 6 6.4 6H25.6L32 12.4H57.6C59.36 12.4 60.8667 13.0267 62.12 14.28C63.3733 15.5333 64 17.04 64 18.8V50.8C64 52.56 63.3733 54.0667 62.12 55.32C60.8667 56.5733 59.36 57.2 57.6 57.2H6.4ZM6.4 50.8H57.6V18.8H29.36L22.96 12.4H6.4V50.8Z" fill="#CFB53B"/>
<path d="M26.6923 47C25.6769 47 24.8077 46.6385 24.0846 45.9154C23.3615 45.1923 23 44.3231 23 43.3077C23 42.6 23.1692 41.9692 23.5077 41.4154C23.8462 40.8615 24.2923 40.4154 24.8462 40.0769V29.8769C24.2923 29.5385 23.8462 29.1 23.5077 28.5615C23.1692 28.0231 23 27.4 23 26.6923C23 25.6769 23.3615 24.8077 24.0846 24.0846C24.8077 23.3615 25.6769 23 26.6923 23C27.7077 23 28.5769 23.3615 29.3 24.0846C30.0231 24.8077 30.3846 25.6769 30.3846 26.6923C30.3846 27.4 30.2154 28.0231 29.8769 28.5615C29.5385 29.1 29.0923 29.5385 28.5385 29.8769V35.1846L35.9231 32.7385V29.8769C35.3692 29.5385 34.9231 29.1 34.5846 28.5615C34.2462 28.0231 34.0769 27.4 34.0769 26.6923C34.0769 25.6769 34.4385 24.8077 35.1615 24.0846C35.8846 23.3615 36.7538 23 37.7692 23C38.7846 23 39.6538 23.3615 40.3769 24.0846C41.1 24.8077 41.4615 25.6769 41.4615 26.6923C41.4615 27.4 41.2923 28.0231 40.9538 28.5615C40.6154 29.1 40.1692 29.5385 39.6154 29.8769V35.3692L28.5385 39.0615V40.0769C29.0923 40.4154 29.5385 40.8615 29.8769 41.4154C30.2154 41.9692 30.3846 42.6 30.3846 43.3077C30.3846 44.3231 30.0231 45.1923 29.3 45.9154C28.5769 46.6385 27.7077 47 26.6923 47Z" fill="#CFB53B"/>
</svg>
