<svg width="48" height="48" viewBox="0 0 64 64" fill="none" xmlns="http://www.w3.org/2000/svg">
<path d="M6.4 57.2C4.64 57.2 3.13333 56.5733 1.88 55.32C0.626667 54.0667 0 52.56 0 50.8V12.4C0 10.64 0.626667 9.13333 1.88 7.88C3.13333 6.62667 4.64 6 6.4 6H25.6L32 12.4H57.6C59.36 12.4 60.8667 13.0267 62.12 14.28C63.3733 15.5333 64 17.04 64 18.8V50.8C64 52.56 63.3733 54.0667 62.12 55.32C60.8667 56.5733 59.36 57.2 57.6 57.2H6.4ZM6.4 50.8H57.6V18.8H29.36L22.96 12.4H6.4V50.8Z" fill="#CFB53B"/>
<path d="M32 46.02L30.26 44.46C28.24 42.64 26.57 41.07 25.25 39.75C23.93 38.43 22.88 37.245 22.1 36.195C21.32 35.145 20.775 34.18 20.465 33.3C20.155 32.42 20 31.52 20 30.6C20 28.72 20.63 27.15 21.89 25.89C23.15 24.63 24.72 24 26.6 24C27.64 24 28.63 24.22 29.57 24.66C30.51 25.1 31.32 25.72 32 26.52C32.68 25.72 33.49 25.1 34.43 24.66C35.37 24.22 36.36 24 37.4 24C39.28 24 40.85 24.63 42.11 25.89C43.37 27.15 44 28.72 44 30.6C44 31.52 43.845 32.42 43.535 33.3C43.225 34.18 42.68 35.145 41.9 36.195C41.12 37.245 40.07 38.43 38.75 39.75C37.43 41.07 35.76 42.64 33.74 44.46L32 46.02ZM32 42.78C33.92 41.06 35.5 39.585 36.74 38.355C37.98 37.125 38.96 36.055 39.68 35.145C40.4 34.235 40.9 33.425 41.18 32.715C41.46 32.005 41.6 31.3 41.6 30.6C41.6 29.4 41.2 28.4 40.4 27.6C39.6 26.8 38.6 26.4 37.4 26.4C36.46 26.4 35.59 26.665 34.79 27.195C33.99 27.725 33.44 28.4 33.14 29.22H30.86C30.56 28.4 30.01 27.725 29.21 27.195C28.41 26.665 27.54 26.4 26.6 26.4C25.4 26.4 24.4 26.8 23.6 27.6C22.8 28.4 22.4 29.4 22.4 30.6C22.4 31.3 22.54 32.005 22.82 32.715C23.1 33.425 23.6 34.235 24.32 35.145C25.04 36.055 26.02 37.125 27.26 38.355C28.5 39.585 30.08 41.06 32 42.78Z" fill="#CFB53B"/>
</svg>
