<svg width="48" height="48" viewBox="0 0 64 64" fill="none" xmlns="http://www.w3.org/2000/svg">
<path d="M6.4 57.2C4.64 57.2 3.13333 56.5733 1.88 55.32C0.626667 54.0667 0 52.56 0 50.8V12.4C0 10.64 0.626667 9.13333 1.88 7.88C3.13333 6.62667 4.64 6 6.4 6H25.6L32 12.4H57.6C59.36 12.4 60.8667 13.0267 62.12 14.28C63.3733 15.5333 64 17.04 64 18.8V50.8C64 52.56 63.3733 54.0667 62.12 55.32C60.8667 56.5733 59.36 57.2 57.6 57.2H6.4ZM6.4 50.8H57.6V18.8H29.36L22.96 12.4H6.4V50.8Z" fill="#CFB53B"/>
<path d="M25.2857 47C24.6571 47 24.119 46.7762 23.6714 46.3286C23.2238 45.881 23 45.3429 23 44.7143V33.2857C23 32.6571 23.2238 32.119 23.6714 31.6714C24.119 31.2238 24.6571 31 25.2857 31H26.4286V28.7143C26.4286 27.1333 26.9857 25.7857 28.1 24.6714C29.2143 23.5571 30.5619 23 32.1429 23C33.7238 23 35.0714 23.5571 36.1857 24.6714C37.3 25.7857 37.8571 27.1333 37.8571 28.7143V31H39C39.6286 31 40.1667 31.2238 40.6143 31.6714C41.0619 32.119 41.2857 32.6571 41.2857 33.2857V44.7143C41.2857 45.3429 41.0619 45.881 40.6143 46.3286C40.1667 46.7762 39.6286 47 39 47H25.2857ZM25.2857 44.7143H39V33.2857H25.2857V44.7143ZM32.1429 41.2857C32.7714 41.2857 33.3095 41.0619 33.7571 40.6143C34.2048 40.1667 34.4286 39.6286 34.4286 39C34.4286 38.3714 34.2048 37.8333 33.7571 37.3857C33.3095 36.9381 32.7714 36.7143 32.1429 36.7143C31.5143 36.7143 30.9762 36.9381 30.5286 37.3857C30.081 37.8333 29.8571 38.3714 29.8571 39C29.8571 39.6286 30.081 40.1667 30.5286 40.6143C30.9762 41.0619 31.5143 41.2857 32.1429 41.2857ZM28.7143 31H35.5714V28.7143C35.5714 27.7619 35.2381 26.9524 34.5714 26.2857C33.9048 25.619 33.0952 25.2857 32.1429 25.2857C31.1905 25.2857 30.381 25.619 29.7143 26.2857C29.0476 26.9524 28.7143 27.7619 28.7143 28.7143V31Z" fill="#CFB53B"/>
</svg>
