<svg width="48" height="48" viewBox="0 0 64 64" fill="none" xmlns="http://www.w3.org/2000/svg">
<path d="M6.4 57.2C4.64 57.2 3.13333 56.5733 1.88 55.32C0.626667 54.0667 0 52.56 0 50.8V12.4C0 10.64 0.626667 9.13333 1.88 7.88C3.13333 6.62667 4.64 6 6.4 6H25.6L32 12.4H57.6C59.36 12.4 60.8667 13.0267 62.12 14.28C63.3733 15.5333 64 17.04 64 18.8V50.8C64 52.56 63.3733 54.0667 62.12 55.32C60.8667 56.5733 59.36 57.2 57.6 57.2H6.4ZM6.4 50.8H57.6V18.8H29.36L22.96 12.4H6.4V50.8Z" fill="#CFB53B"/>
<path d="M35.6632 33.7368L33.8947 31.9684L37.1789 28.6842L33.8947 25.4L35.6632 23.6316L38.9474 26.9158L42.2316 23.6316L44 25.4L40.7158 28.6842L44 31.9684L42.2316 33.7368L38.9474 30.4526L35.6632 33.7368ZM20 34.3684L26.3158 23L32.6316 34.3684H20ZM26.3158 47C24.9263 47 23.7368 46.5053 22.7474 45.5158C21.7579 44.5263 21.2632 43.3368 21.2632 41.9474C21.2632 40.5368 21.7579 39.3421 22.7474 38.3632C23.7368 37.3842 24.9263 36.8947 26.3158 36.8947C27.7053 36.8947 28.8947 37.3895 29.8842 38.3789C30.8737 39.3684 31.3684 40.5579 31.3684 41.9474C31.3684 43.3368 30.8737 44.5263 29.8842 45.5158C28.8947 46.5053 27.7053 47 26.3158 47ZM26.3158 44.4737C27.0105 44.4737 27.6053 44.2263 28.1 43.7316C28.5947 43.2368 28.8421 42.6421 28.8421 41.9474C28.8421 41.2526 28.5947 40.6579 28.1 40.1632C27.6053 39.6684 27.0105 39.4211 26.3158 39.4211C25.6211 39.4211 25.0263 39.6684 24.5316 40.1632C24.0368 40.6579 23.7895 41.2526 23.7895 41.9474C23.7895 42.6421 24.0368 43.2368 24.5316 43.7316C25.0263 44.2263 25.6211 44.4737 26.3158 44.4737ZM24.2947 31.8421H28.3368L26.3158 28.2105L24.2947 31.8421ZM33.8947 47V36.8947H44V47H33.8947ZM36.4211 44.4737H41.4737V39.4211H36.4211V44.4737Z" fill="#CFB53B"/>
</svg>
