<svg width="48" height="48" viewBox="0 0 64 64" fill="none" xmlns="http://www.w3.org/2000/svg">
<path d="M6.4 57.2C4.64 57.2 3.13333 56.5733 1.88 55.32C0.626667 54.0667 0 52.56 0 50.8V12.4C0 10.64 0.626667 9.13333 1.88 7.88C3.13333 6.62667 4.64 6 6.4 6H25.6L32 12.4H57.6C59.36 12.4 60.8667 13.0267 62.12 14.28C63.3733 15.5333 64 17.04 64 18.8V50.8C64 52.56 63.3733 54.0667 62.12 55.32C60.8667 56.5733 59.36 57.2 57.6 57.2H6.4ZM6.4 50.8H57.6V18.8H29.36L22.96 12.4H6.4V50.8Z" fill="#CFB53B"/>
<path d="M36.8 30V26.4H27.2V30H24.8V24H39.2V30H36.8ZM39.2 35.4C39.54 35.4 39.825 35.285 40.055 35.055C40.285 34.825 40.4 34.54 40.4 34.2C40.4 33.86 40.285 33.575 40.055 33.345C39.825 33.115 39.54 33 39.2 33C38.86 33 38.575 33.115 38.345 33.345C38.115 33.575 38 33.86 38 34.2C38 34.54 38.115 34.825 38.345 35.055C38.575 35.285 38.86 35.4 39.2 35.4ZM36.8 43.2V38.4H27.2V43.2H36.8ZM39.2 45.6H24.8V40.8H20V33.6C20 32.58 20.35 31.725 21.05 31.035C21.75 30.345 22.6 30 23.6 30H40.4C41.42 30 42.275 30.345 42.965 31.035C43.655 31.725 44 32.58 44 33.6V40.8H39.2V45.6ZM41.6 38.4V33.6C41.6 33.26 41.485 32.975 41.255 32.745C41.025 32.515 40.74 32.4 40.4 32.4H23.6C23.26 32.4 22.975 32.515 22.745 32.745C22.515 32.975 22.4 33.26 22.4 33.6V38.4H24.8V36H39.2V38.4H41.6Z" fill="#CFB53B"/>
</svg>
