<svg width="48" height="48" viewBox="0 0 64 64" fill="none" xmlns="http://www.w3.org/2000/svg">
<path d="M44.8 31.6V25.2H51.2V31.6H44.8ZM44.8 38H38.4V31.6H44.8V38ZM44.8 44.4V38H51.2V44.4H44.8ZM29.36 18.8L22.96 12.4H6.4V50.8H38.4V44.4H44.8V50.8H57.6V18.8H44.8V25.2H38.4V18.8H29.36ZM6.4 57.2C4.64 57.2 3.13333 56.5733 1.88 55.32C0.626667 54.0667 0 52.56 0 50.8V12.4C0 10.64 0.626667 9.13333 1.88 7.88C3.13333 6.62667 4.64 6 6.4 6H25.6L32 12.4H57.6C59.36 12.4 60.8667 13.0267 62.12 14.28C63.3733 15.5333 64 17.04 64 18.8V50.8C64 52.56 63.3733 54.0667 62.12 55.32C60.8667 56.5733 59.36 57.2 57.6 57.2H6.4Z" fill="#CFB53B"/>
<path d="M10.4773 29.598V28.2727H17.4403V29.598H14.7429V37H13.1747V29.598H10.4773ZM18.8487 37H17.1612L20.2337 28.2727H22.1854L25.2621 37H23.5746L21.2436 30.0625H21.1754L18.8487 37ZM18.9041 33.5781H23.5064V34.848H18.9041V33.5781ZM26.4116 37V28.2727H29.6843C30.3548 28.2727 30.9173 28.3892 31.3718 28.6222C31.8292 28.8551 32.1744 29.1818 32.4073 29.6023C32.6431 30.0199 32.761 30.5071 32.761 31.0639C32.761 31.6236 32.6417 32.1094 32.4031 32.5213C32.1673 32.9304 31.8192 33.2472 31.359 33.4716C30.8988 33.6932 30.3335 33.804 29.663 33.804H27.332V32.4915H29.4499C29.842 32.4915 30.163 32.4375 30.413 32.3295C30.663 32.2187 30.8477 32.0582 30.967 31.848C31.0891 31.6349 31.1502 31.3736 31.1502 31.0639C31.1502 30.7543 31.0891 30.4901 30.967 30.2713C30.8448 30.0497 30.6587 29.8821 30.4087 29.7685C30.1587 29.652 29.8363 29.5938 29.4414 29.5938H27.9925V37H26.4116ZM30.9201 33.0455L33.0806 37H31.3164L29.1942 33.0455H30.9201Z" fill="#CFB53B"/>
</svg>
