<svg width="48" height="48" viewBox="0 0 64 64" fill="none" xmlns="http://www.w3.org/2000/svg">
<path d="M6.4 57.2C4.64 57.2 3.13333 56.5733 1.88 55.32C0.626667 54.0667 0 52.56 0 50.8V12.4C0 10.64 0.626667 9.13333 1.88 7.88C3.13333 6.62667 4.64 6 6.4 6H25.6L32 12.4H57.6C59.36 12.4 60.8667 13.0267 62.12 14.28C63.3733 15.5333 64 17.04 64 18.8V50.8C64 52.56 63.3733 54.0667 62.12 55.32C60.8667 56.5733 59.36 57.2 57.6 57.2H6.4ZM6.4 50.8H57.6V18.8H29.36L22.96 12.4H6.4V50.8Z" fill="#CFB53B"/>
<path d="M32 35C30.35 35 28.9375 34.4125 27.7625 33.2375C26.5875 32.0625 26 30.65 26 29C26 27.35 26.5875 25.9375 27.7625 24.7625C28.9375 23.5875 30.35 23 32 23C33.65 23 35.0625 23.5875 36.2375 24.7625C37.4125 25.9375 38 27.35 38 29C38 30.65 37.4125 32.0625 36.2375 33.2375C35.0625 34.4125 33.65 35 32 35ZM20 47V42.8C20 41.95 20.2187 41.1687 20.6562 40.4562C21.0938 39.7437 21.675 39.2 22.4 38.825C23.95 38.05 25.525 37.4687 27.125 37.0812C28.725 36.6937 30.35 36.5 32 36.5C33.65 36.5 35.275 36.6937 36.875 37.0812C38.475 37.4687 40.05 38.05 41.6 38.825C42.325 39.2 42.9062 39.7437 43.3438 40.4562C43.7813 41.1687 44 41.95 44 42.8V47H20ZM23 44H41V42.8C41 42.525 40.9313 42.275 40.7938 42.05C40.6563 41.825 40.475 41.65 40.25 41.525C38.9 40.85 37.5375 40.3438 36.1625 40.0063C34.7875 39.6688 33.4 39.5 32 39.5C30.6 39.5 29.2125 39.6688 27.8375 40.0063C26.4625 40.3438 25.1 40.85 23.75 41.525C23.525 41.65 23.3438 41.825 23.2063 42.05C23.0688 42.275 23 42.525 23 42.8V44ZM32 32C32.825 32 33.5313 31.7062 34.1188 31.1187C34.7063 30.5312 35 29.825 35 29C35 28.175 34.7063 27.4688 34.1188 26.8813C33.5313 26.2938 32.825 26 32 26C31.175 26 30.4688 26.2938 29.8813 26.8813C29.2938 27.4688 29 28.175 29 29C29 29.825 29.2938 30.5312 29.8813 31.1187C30.4688 31.7062 31.175 32 32 32Z" fill="#CFB53B"/>
</svg>
