<svg width="48" height="48" viewBox="0 0 64 64" fill="none" xmlns="http://www.w3.org/2000/svg">
<path d="M6.4 57.2C4.64 57.2 3.13333 56.5733 1.88 55.32C0.626667 54.0667 0 52.56 0 50.8V12.4C0 10.64 0.626667 9.13333 1.88 7.88C3.13333 6.62667 4.64 6 6.4 6H25.6L32 12.4H57.6C59.36 12.4 60.8667 13.0267 62.12 14.28C63.3733 15.5333 64 17.04 64 18.8V50.8C64 52.56 63.3733 54.0667 62.12 55.32C60.8667 56.5733 59.36 57.2 57.6 57.2H6.4ZM6.4 50.8H57.6V18.8H29.36L22.96 12.4H6.4V50.8Z" fill="#CFB53B"/>
<path d="M31.4286 35.2857L22.2857 29.5714V41H32.5714V43.2857H22.2857C21.6571 43.2857 21.119 43.0619 20.6714 42.6143C20.2238 42.1667 20 41.6286 20 41V27.2857C20 26.6571 20.2238 26.119 20.6714 25.6714C21.119 25.2238 21.6571 25 22.2857 25H40.5714C41.2 25 41.7381 25.2238 42.1857 25.6714C42.6333 26.119 42.8571 26.6571 42.8571 27.2857V35.2857H40.5714V29.5714L31.4286 35.2857ZM31.4286 33L40.5714 27.2857H22.2857L31.4286 33ZM39.4286 46.7143L37.8286 45.1143L39.6286 43.2857H34.8571V41H39.6286L37.8 39.1714L39.4286 37.5714L44 42.1429L39.4286 46.7143ZM22.2857 29.5714V42.1429V35.2857V35.3714V27.2857V29.5714Z" fill="#CFB53B"/>
</svg>
