<svg width="48" height="48" viewBox="0 0 64 64" fill="none" xmlns="http://www.w3.org/2000/svg">
<path d="M6.4 57.2C4.64 57.2 3.13333 56.5733 1.88 55.32C0.626667 54.0667 0 52.56 0 50.8V12.4C0 10.64 0.626667 9.13333 1.88 7.88C3.13333 6.62667 4.64 6 6.4 6H25.6L32 12.4H57.6C59.36 12.4 60.8667 13.0267 62.12 14.28C63.3733 15.5333 64 17.04 64 18.8V50.8C64 52.56 63.3733 54.0667 62.12 55.32C60.8667 56.5733 59.36 57.2 57.6 57.2H6.4ZM6.4 50.8H57.6V18.8H29.36L22.96 12.4H6.4V50.8Z" fill="#CFB53B"/>
<path d="M23 47C22.175 47 21.4688 46.7063 20.8813 46.1188C20.2938 45.5312 20 44.825 20 44C20 43.175 20.2938 42.4688 20.8813 41.8813C21.4688 41.2938 22.175 41 23 41C23.825 41 24.5312 41.2938 25.1188 41.8813C25.7063 42.4688 26 43.175 26 44C26 44.825 25.7063 45.5312 25.1188 46.1188C24.5312 46.7063 23.825 47 23 47ZM32 47C31.175 47 30.4688 46.7063 29.8813 46.1188C29.2937 45.5312 29 44.825 29 44C29 43.175 29.2937 42.4688 29.8813 41.8813C30.4688 41.2938 31.175 41 32 41C32.825 41 33.5313 41.2938 34.1188 41.8813C34.7063 42.4688 35 43.175 35 44C35 44.825 34.7063 45.5312 34.1188 46.1188C33.5313 46.7063 32.825 47 32 47ZM41 47C40.175 47 39.4688 46.7063 38.8813 46.1188C38.2938 45.5312 38 44.825 38 44C38 43.175 38.2938 42.4688 38.8813 41.8813C39.4688 41.2938 40.175 41 41 41C41.825 41 42.5312 41.2938 43.1188 41.8813C43.7063 42.4688 44 43.175 44 44C44 44.825 43.7063 45.5312 43.1188 46.1188C42.5312 46.7063 41.825 47 41 47ZM23 38C22.175 38 21.4688 37.7063 20.8813 37.1188C20.2938 36.5313 20 35.825 20 35C20 34.175 20.2938 33.4688 20.8813 32.8813C21.4688 32.2937 22.175 32 23 32C23.825 32 24.5312 32.2937 25.1188 32.8813C25.7063 33.4688 26 34.175 26 35C26 35.825 25.7063 36.5313 25.1188 37.1188C24.5312 37.7063 23.825 38 23 38ZM32 38C31.175 38 30.4688 37.7063 29.8813 37.1188C29.2937 36.5313 29 35.825 29 35C29 34.175 29.2937 33.4688 29.8813 32.8813C30.4688 32.2937 31.175 32 32 32C32.825 32 33.5313 32.2937 34.1188 32.8813C34.7063 33.4688 35 34.175 35 35C35 35.825 34.7063 36.5313 34.1188 37.1188C33.5313 37.7063 32.825 38 32 38ZM41 38C40.175 38 39.4688 37.7063 38.8813 37.1188C38.2938 36.5313 38 35.825 38 35C38 34.175 38.2938 33.4688 38.8813 32.8813C39.4688 32.2937 40.175 32 41 32C41.825 32 42.5312 32.2937 43.1188 32.8813C43.7063 33.4688 44 34.175 44 35C44 35.825 43.7063 36.5313 43.1188 37.1188C42.5312 37.7063 41.825 38 41 38ZM23 29C22.175 29 21.4688 28.7063 20.8813 28.1188C20.2938 27.5312 20 26.825 20 26C20 25.175 20.2938 24.4688 20.8813 23.8813C21.4688 23.2938 22.175 23 23 23C23.825 23 24.5312 23.2938 25.1188 23.8813C25.7063 24.4688 26 25.175 26 26C26 26.825 25.7063 27.5312 25.1188 28.1188C24.5312 28.7063 23.825 29 23 29ZM32 29C31.175 29 30.4688 28.7063 29.8813 28.1188C29.2937 27.5312 29 26.825 29 26C29 25.175 29.2937 24.4688 29.8813 23.8813C30.4688 23.2938 31.175 23 32 23C32.825 23 33.5313 23.2938 34.1188 23.8813C34.7063 24.4688 35 25.175 35 26C35 26.825 34.7063 27.5312 34.1188 28.1188C33.5313 28.7063 32.825 29 32 29ZM41 29C40.175 29 39.4688 28.7063 38.8813 28.1188C38.2938 27.5312 38 26.825 38 26C38 25.175 38.2938 24.4688 38.8813 23.8813C39.4688 23.2938 40.175 23 41 23C41.825 23 42.5312 23.2938 43.1188 23.8813C43.7063 24.4688 44 25.175 44 26C44 26.825 43.7063 27.5312 43.1188 28.1188C42.5312 28.7063 41.825 29 41 29Z" fill="#CFB53B"/>
</svg>
